<svg width="143" height="38" viewBox="0 0 143 38" fill="none" xmlns="http://www.w3.org/2000/svg">
<path d="M130.95 0.000121709H12.1049C11.6717 0.000121709 11.2437 0.000121709 10.8117 0.00199416C10.45 0.0038666 10.0912 0.00930606 9.72606 0.0138842C8.93279 0.0212821 8.14139 0.076589 7.35873 0.179324C6.57718 0.284296 5.8201 0.482198 5.11311 0.766337C4.40699 1.05288 3.76179 1.42521 3.20091 1.86983C2.63709 2.31319 2.1671 2.82566 1.80901 3.38753C1.44994 3.94828 1.20095 4.54918 1.07066 5.16946C0.93913 5.78897 0.868352 6.41561 0.858962 7.04378C0.847999 7.33083 0.846841 7.61883 0.841064 7.90591V29.546C0.846841 29.8367 0.847999 30.1183 0.858962 30.4091C0.868355 31.0373 0.939133 31.6639 1.07066 32.2834C1.20059 32.904 1.44959 33.5053 1.80901 34.0662C2.16693 34.6263 2.63699 35.1367 3.20091 35.5776C3.75966 36.0242 4.40528 36.3967 5.11311 36.6811C5.8201 36.966 6.57709 37.1651 7.35873 37.2717C8.14152 37.3736 8.93284 37.4289 9.72606 37.4372C10.0912 37.4436 10.45 37.4472 10.8117 37.4472C11.2437 37.4491 11.6718 37.4491 12.1049 37.4491H130.95C131.374 37.4491 131.806 37.4491 132.23 37.4472C132.59 37.4472 132.959 37.4436 133.319 37.4372C134.111 37.4293 134.901 37.374 135.682 37.2717C136.466 37.1643 137.226 36.9653 137.936 36.6811C138.643 36.3966 139.289 36.024 139.847 35.5776C140.409 35.1349 140.88 34.6249 141.243 34.0662C141.599 33.5048 141.846 32.9037 141.974 32.2834C142.106 31.6638 142.179 31.0373 142.193 30.4091C142.198 30.1183 142.198 29.8367 142.198 29.546C142.207 29.2059 142.207 28.8676 142.207 28.522V8.92807C142.207 8.58522 142.207 8.24511 142.198 7.90591C142.198 7.61883 142.198 7.33083 142.193 7.04375C142.179 6.41552 142.106 5.78901 141.974 5.16943C141.846 4.5495 141.599 3.94865 141.243 3.38749C140.513 2.26129 139.357 1.34456 137.936 0.766252C137.226 0.482808 136.466 0.284959 135.682 0.17924C134.901 0.0760521 134.111 0.0207259 133.319 0.0137531C132.959 0.00918435 132.59 0.00369808 132.23 0.00187245C131.806 0 131.374 0 130.95 0V0.000121709Z" fill="#E3E8EA"/>
<path d="M11.0444 36.596C10.686 36.596 10.3362 36.5924 9.98053 36.586C9.24377 36.5784 8.50874 36.5275 7.78146 36.4336C7.10331 36.3409 6.44636 36.1683 5.83229 35.9216C5.22385 35.677 4.6689 35.3562 4.18871 34.9716C3.70156 34.5915 3.29599 34.1507 2.98807 33.6665C2.67675 33.1793 2.4613 32.657 2.34922 32.1179C2.22819 31.5386 2.1627 30.9528 2.15333 30.3657C2.14587 30.1686 2.13611 29.5124 2.13611 29.5124V7.92469C2.13611 7.92469 2.14651 7.27856 2.15339 7.08874C2.16236 6.5025 2.22747 5.91766 2.34814 5.33927C2.46042 4.79867 2.67604 4.27488 2.98753 3.78602C3.29432 3.30224 3.69764 2.86107 4.18185 2.47962C4.66551 2.09455 5.22224 1.77213 5.83172 1.52412C6.44438 1.27823 7.10008 1.10688 7.77686 1.0158C8.50653 0.921009 9.24411 0.869761 9.98342 0.862485L11.045 0.851074H131.953L133.028 0.862943C133.76 0.869857 134.491 0.920648 135.214 1.01488C135.898 1.10711 136.56 1.27965 137.18 1.52686C138.401 2.02667 139.394 2.81743 140.021 3.7883C140.328 4.27379 140.54 4.79331 140.651 5.32923C140.773 5.91237 140.841 6.50181 140.855 7.09285C140.859 7.3575 140.859 7.64178 140.859 7.92469C140.868 8.27513 140.868 8.60869 140.868 8.94498V28.503C140.868 28.8425 140.868 29.1738 140.859 29.5078C140.859 29.8117 140.859 30.0901 140.854 30.3766C140.84 30.9571 140.773 31.536 140.653 32.1087C140.543 32.6517 140.329 33.1781 140.018 33.6693C139.708 34.1482 139.304 34.5852 138.823 34.9643C138.342 35.351 137.786 35.6736 137.176 35.9198C136.558 36.1684 135.897 36.3416 135.214 36.4336C134.487 36.528 133.752 36.5789 133.015 36.586C132.67 36.5924 132.309 36.596 131.959 36.596L130.684 36.5979L11.0444 36.596Z" fill="#24272C"/>
<path d="M26.0162 19.0079C26.0269 18.2264 26.2486 17.4603 26.6606 16.7806C27.0726 16.1009 27.6615 15.5299 28.3726 15.1206C27.9209 14.5166 27.325 14.0195 26.6322 13.6688C25.9394 13.3182 25.1688 13.1236 24.3817 13.1005C22.7026 12.9355 21.0747 14.0413 20.2191 14.0413C19.3468 14.0413 18.0294 13.1169 16.6108 13.1442C15.6932 13.172 14.7989 13.4218 14.0151 13.8694C13.2313 14.317 12.5846 14.947 12.1382 15.6981C10.2043 18.833 11.6468 23.4402 13.4993 25.9742C14.4261 27.2151 15.5093 28.6011 16.9267 28.552C18.3137 28.4981 18.8317 27.7239 20.5059 27.7239C22.1645 27.7239 22.6505 28.552 24.0966 28.5207C25.5849 28.4981 26.5226 27.2744 27.4169 26.0218C28.0828 25.1377 28.5953 24.1605 28.9352 23.1265C28.0706 22.7841 27.3327 22.211 26.8136 21.4785C26.2945 20.7461 26.0172 19.8869 26.0162 19.0079Z" fill="white"/>
<path d="M23.2849 11.4338C24.0963 10.5217 24.4961 9.34938 24.3993 8.16577C23.1596 8.28769 22.0144 8.84246 21.1919 9.71954C20.7898 10.148 20.4818 10.6465 20.2856 11.1865C20.0894 11.7265 20.0087 12.2974 20.0483 12.8666C20.6684 12.8725 21.2819 12.7467 21.8425 12.4985C22.4031 12.2503 22.8963 11.8863 23.2849 11.4338Z" fill="white"/>
<path d="M43.5496 25.4097H38.8165L37.6799 28.5521H35.6751L40.1582 16.926H42.2411L46.7242 28.5521H44.6852L43.5496 25.4097ZM39.3067 23.9596H43.0585L41.209 18.8598H41.1572L39.3067 23.9596Z" fill="white"/>
<path d="M56.4061 24.3147C56.4061 26.9488 54.9003 28.6411 52.628 28.6411C52.0524 28.6693 51.4799 28.5451 50.9762 28.2829C50.4724 28.0206 50.0577 27.6308 49.7796 27.1581H49.7366V31.3565H47.8783V20.0761H49.677V21.4859H49.7112C50.0021 21.0155 50.4238 20.6277 50.9314 20.3638C51.439 20.1 52.0135 19.9699 52.5938 19.9874C54.8915 19.9874 56.4061 21.688 56.4061 24.3147ZM54.496 24.3147C54.496 22.5986 53.5488 21.4704 52.1036 21.4704C50.6838 21.4704 49.7288 22.6224 49.7288 24.3147C49.7288 26.0226 50.6838 27.1664 52.1036 27.1664C53.5488 27.1664 54.496 26.0464 54.496 24.3147Z" fill="white"/>
<path d="M66.3701 24.3147C66.3701 26.9488 64.8644 28.6411 62.5921 28.6411C62.0164 28.6693 61.444 28.5451 60.9402 28.2829C60.4365 28.0206 60.0218 27.6308 59.7436 27.1581H59.7006V31.3565H57.8423V20.0761H59.641V21.4859H59.6752C59.9662 21.0155 60.3879 20.6277 60.8955 20.3638C61.4031 20.1 61.9776 19.9699 62.5579 19.9874C64.8556 19.9874 66.3701 21.688 66.3701 24.3147ZM64.4601 24.3147C64.4601 22.5986 63.5129 21.4704 62.0677 21.4704C60.6478 21.4704 59.6928 22.6224 59.6928 24.3147C59.6928 26.0226 60.6478 27.1664 62.0677 27.1664C63.5129 27.1664 64.4601 26.0464 64.4601 24.3147H64.4601Z" fill="white"/>
<path d="M72.9568 25.313C73.0945 26.4659 74.2907 27.2229 75.9254 27.2229C77.4917 27.2229 78.6185 26.4659 78.6185 25.4264C78.6185 24.524 77.9389 23.9836 76.3296 23.6133L74.7204 23.2504C72.4403 22.7347 71.3817 21.7363 71.3817 20.1162C71.3817 18.1102 73.2488 16.7324 75.9 16.7324C78.5238 16.7324 80.3225 18.1102 80.3831 20.1162H78.5072C78.3949 18.956 77.3706 18.2556 75.8736 18.2556C74.3766 18.2556 73.3523 18.9642 73.3523 19.9955C73.3523 20.8175 74.0065 21.3011 75.607 21.6714L76.9751 21.9859C79.5228 22.55 80.5813 23.5082 80.5813 25.2087C80.5813 27.3838 78.7308 28.7461 75.7877 28.7461C73.0339 28.7461 71.1747 27.4158 71.0546 25.3129L72.9568 25.313Z" fill="white"/>
<path d="M84.591 18.0696V20.0755H86.3125V21.4533H84.591V26.1263C84.591 26.8522 84.9357 27.1905 85.6925 27.1905C85.8968 27.1871 86.1009 27.1737 86.3038 27.1502V28.5198C85.9635 28.5793 85.6177 28.6063 85.2716 28.6003C83.4387 28.6003 82.7239 27.9557 82.7239 26.3118V21.4533H81.4076V20.0755H82.7239V18.0696H84.591Z" fill="white"/>
<path d="M87.3089 24.3145C87.3089 21.6476 88.9865 19.9717 91.6026 19.9717C94.2274 19.9717 95.8972 21.6475 95.8972 24.3145C95.8972 26.9888 94.2362 28.6574 91.6026 28.6574C88.9699 28.6574 87.3089 26.9888 87.3089 24.3145ZM94.0038 24.3145C94.0038 22.485 93.1083 21.4053 91.6025 21.4053C90.0968 21.4053 89.2023 22.4933 89.2023 24.3145C89.2023 26.1513 90.0968 27.2229 91.6025 27.2229C93.1083 27.2229 94.0037 26.1513 94.0037 24.3145H94.0038Z" fill="white"/>
<path d="M97.4292 20.076H99.2016V21.5187H99.2446C99.3645 21.0681 99.6464 20.6699 100.043 20.391C100.44 20.1122 100.927 19.9696 101.422 19.9873C101.636 19.9866 101.85 20.0084 102.059 20.0522V21.6797C101.788 21.6023 101.506 21.5668 101.224 21.5745C100.954 21.5643 100.685 21.6088 100.435 21.7052C100.185 21.8015 99.9605 21.9473 99.7766 22.1325C99.5926 22.3178 99.4536 22.5382 99.3692 22.7785C99.2848 23.0188 99.2569 23.2733 99.2875 23.5247V28.5523H97.4292L97.4292 20.076Z" fill="white"/>
<path d="M110.627 26.0626C110.377 27.6014 108.777 28.6574 106.729 28.6574C104.096 28.6574 102.461 27.0053 102.461 24.3548C102.461 21.696 104.104 19.9717 106.651 19.9717C109.156 19.9717 110.731 21.5826 110.731 24.1527V24.7488H104.337V24.854C104.307 25.1659 104.349 25.4802 104.459 25.7759C104.569 26.0716 104.746 26.3419 104.976 26.569C105.206 26.7961 105.486 26.9747 105.795 27.0929C106.105 27.2112 106.438 27.2664 106.772 27.2549C107.211 27.2934 107.652 27.1982 108.029 26.9833C108.405 26.7685 108.698 26.4456 108.863 26.0626L110.627 26.0626ZM104.346 23.5328H108.872C108.888 23.2523 108.843 22.9716 108.738 22.7084C108.634 22.4451 108.472 22.2049 108.263 22.0029C108.055 21.8009 107.804 21.6414 107.527 21.5345C107.249 21.4276 106.951 21.3755 106.651 21.3815C106.349 21.3798 106.049 21.4343 105.769 21.5417C105.489 21.6491 105.234 21.8074 105.02 22.0074C104.805 22.2074 104.635 22.4452 104.52 22.707C104.404 22.9688 104.345 23.2495 104.346 23.5328V23.5328Z" fill="white"/>
<path d="M39.0733 8.17284C39.4629 8.14667 39.8539 8.20177 40.2179 8.33419C40.582 8.4666 40.9102 8.67302 41.1788 8.93856C41.4473 9.20409 41.6496 9.52213 41.771 9.86972C41.8924 10.2173 41.9299 10.5858 41.8808 10.9486C41.8808 12.7333 40.8506 13.7592 39.0733 13.7592H36.9182V8.17284H39.0733ZM37.8449 12.9691H38.9698C39.2482 12.9847 39.5268 12.942 39.7853 12.844C40.0438 12.7461 40.2758 12.5954 40.4643 12.403C40.6527 12.2105 40.793 11.9811 40.8749 11.7315C40.9567 11.4819 40.9781 11.2183 40.9375 10.96C40.9752 10.7027 40.9516 10.4408 40.8685 10.193C40.7854 9.94518 40.6448 9.71768 40.4567 9.52675C40.2687 9.33583 40.0378 9.18621 39.7808 9.08862C39.5237 8.99103 39.2468 8.94789 38.9698 8.96228H37.8449V12.9691Z" fill="white"/>
<path d="M42.9276 11.649C42.8993 11.372 42.9331 11.0925 43.027 10.8284C43.1208 10.5643 43.2725 10.3215 43.4725 10.1156C43.6724 9.9096 43.9161 9.74505 44.1879 9.63244C44.4598 9.51984 44.7537 9.46167 45.051 9.46167C45.3482 9.46167 45.6422 9.51984 45.914 9.63244C46.1859 9.74505 46.4295 9.9096 46.6295 10.1156C46.8294 10.3215 46.9812 10.5643 47.075 10.8284C47.1688 11.0925 47.2027 11.372 47.1744 11.649C47.2032 11.9264 47.1698 12.2063 47.0762 12.4708C46.9826 12.7353 46.8309 12.9786 46.631 13.1849C46.431 13.3913 46.1871 13.5562 45.915 13.669C45.6429 13.7819 45.3486 13.8402 45.051 13.8402C44.7534 13.8402 44.4591 13.7819 44.187 13.669C43.9148 13.5562 43.671 13.3913 43.471 13.1849C43.271 12.9786 43.1194 12.7353 43.0258 12.4708C42.9322 12.2063 42.8987 11.9264 42.9276 11.649ZM46.2604 11.649C46.2604 10.7352 45.8219 10.2008 45.0524 10.2008C44.28 10.2008 43.8455 10.7352 43.8455 11.6491C43.8455 12.5702 44.2801 13.1005 45.0524 13.1005C45.8219 13.1005 46.2604 12.5665 46.2604 11.649H46.2604Z" fill="white"/>
<path d="M52.82 13.7587H51.8982L50.9676 10.6538H50.8973L49.9706 13.7587H49.0576L47.8165 9.54297H48.7178L49.5244 12.7598H49.5908L50.5165 9.54297H51.369L52.2947 12.7598H52.365L53.1677 9.54297H54.0563L52.82 13.7587Z" fill="white"/>
<path d="M55.0991 9.54305H55.9545V10.2128H56.0209C56.1336 9.97222 56.3236 9.77058 56.5644 9.63595C56.8053 9.50131 57.085 9.44039 57.3646 9.46167C57.5837 9.44625 57.8037 9.47718 58.0082 9.55216C58.2128 9.62715 58.3968 9.74428 58.5464 9.89486C58.6961 10.0455 58.8077 10.2256 58.8729 10.4221C58.9381 10.6185 58.9552 10.8262 58.9231 11.0297V13.7588H58.0345V11.2386C58.0345 10.5611 57.72 10.2242 57.0629 10.2242C56.9141 10.2177 56.7656 10.2414 56.6276 10.2937C56.4895 10.3459 56.3652 10.4255 56.2631 10.527C56.1609 10.6285 56.0835 10.7494 56.0359 10.8816C55.9884 11.0137 55.972 11.1539 55.9877 11.2925V13.7588H55.0991L55.0991 9.54305Z" fill="white"/>
<path d="M60.3397 7.89746H61.2283V13.7589H60.3397V7.89746Z" fill="white"/>
<path d="M62.4642 11.6491C62.4359 11.3721 62.4698 11.0925 62.5636 10.8284C62.6575 10.5643 62.8093 10.3215 63.0092 10.1156C63.2091 9.90961 63.4529 9.74505 63.7247 9.63245C63.9966 9.51984 64.2906 9.46167 64.5878 9.46167C64.8851 9.46167 65.1791 9.51984 65.4509 9.63245C65.7228 9.74505 65.9665 9.90961 66.1664 10.1156C66.3664 10.3215 66.5182 10.5643 66.612 10.8284C66.7059 11.0925 66.7397 11.3721 66.7114 11.6491C66.7403 11.9265 66.7068 12.2064 66.6132 12.4709C66.5196 12.7354 66.3679 12.9786 66.1679 13.185C65.9679 13.3914 65.724 13.5562 65.4519 13.6691C65.1797 13.7819 64.8854 13.8402 64.5878 13.8402C64.2902 13.8402 63.9959 13.7819 63.7238 13.6691C63.4517 13.5562 63.2078 13.3914 63.0078 13.185C62.8078 12.9786 62.6561 12.7354 62.5625 12.4709C62.4689 12.2064 62.4354 11.9265 62.4642 11.6491ZM65.797 11.6491C65.797 10.7353 65.3585 10.2009 64.589 10.2009C63.8166 10.2009 63.3821 10.7353 63.3821 11.6491C63.3821 12.5703 63.8167 13.1006 64.589 13.1006C65.3585 13.1006 65.797 12.5666 65.797 11.6491H65.797Z" fill="white"/>
<path d="M67.6456 12.5666C67.6456 11.8077 68.2491 11.3702 69.3203 11.3081L70.54 11.2422V10.8784C70.54 10.4331 70.2256 10.1817 69.6182 10.1817C69.1221 10.1817 68.7784 10.3522 68.6797 10.6502H67.8194C67.9103 9.92612 68.6378 9.46167 69.6592 9.46167C70.788 9.46167 71.4247 9.98783 71.4247 10.8784V13.7588H70.5693V13.1663H70.499C70.3563 13.3789 70.1559 13.5521 69.9183 13.6684C69.6807 13.7847 69.4143 13.8399 69.1465 13.8283C68.9575 13.8467 68.7665 13.8278 68.5857 13.7728C68.4049 13.7179 68.2385 13.6281 68.0971 13.5092C67.9557 13.3903 67.8425 13.245 67.7647 13.0827C67.6869 12.9203 67.6464 12.7445 67.6456 12.5666ZM70.54 12.2063V11.8539L69.4404 11.9197C68.8204 11.9586 68.5391 12.1561 68.5391 12.5277C68.5391 12.9071 68.8907 13.1279 69.3741 13.1279C69.5157 13.1414 69.6588 13.128 69.7948 13.0886C69.9308 13.0492 70.0569 12.9845 70.1657 12.8986C70.2745 12.8126 70.3637 12.707 70.428 12.5881C70.4923 12.4691 70.5304 12.3393 70.54 12.2063Z" fill="white"/>
<path d="M72.5927 11.6492C72.5927 10.3171 73.3241 9.47324 74.4617 9.47324C74.7431 9.4611 75.0224 9.52421 75.2669 9.65518C75.5114 9.78615 75.7111 9.97958 75.8425 10.2129H75.9089V7.89746H76.7975V13.7589H75.946V13.0929H75.8757C75.7341 13.3246 75.5275 13.5156 75.2783 13.6453C75.029 13.7749 74.7467 13.8382 74.4617 13.8284C73.3163 13.8285 72.5927 12.9846 72.5927 11.6492ZM73.5106 11.6492C73.5106 12.5434 73.9608 13.0815 74.7137 13.0815C75.4627 13.0815 75.9255 12.5356 75.9255 11.6529C75.9255 10.7743 75.4578 10.2207 74.7137 10.2207C73.9657 10.2207 73.5106 10.7624 73.5106 11.6492H73.5106Z" fill="white"/>
<path d="M80.4739 11.649C80.4456 11.372 80.4795 11.0925 80.5733 10.8284C80.6671 10.5643 80.8189 10.3215 81.0188 10.1156C81.2187 9.9096 81.4624 9.74505 81.7342 9.63244C82.0061 9.51984 82.3001 9.46167 82.5973 9.46167C82.8946 9.46167 83.1885 9.51984 83.4604 9.63244C83.7322 9.74505 83.9759 9.9096 84.1758 10.1156C84.3757 10.3215 84.5275 10.5643 84.6213 10.8284C84.7152 11.0925 84.749 11.372 84.7207 11.649C84.7495 11.9264 84.7161 12.2063 84.6225 12.4708C84.5289 12.7353 84.3773 12.9786 84.1773 13.1849C83.9773 13.3913 83.7334 13.5562 83.4613 13.669C83.1892 13.7819 82.8949 13.8402 82.5973 13.8402C82.2997 13.8402 82.0054 13.7819 81.7333 13.669C81.4612 13.5562 81.2173 13.3913 81.0173 13.1849C80.8173 12.9786 80.6657 12.7353 80.5721 12.4708C80.4785 12.2063 80.4451 11.9264 80.4739 11.649ZM83.8067 11.649C83.8067 10.7352 83.3682 10.2008 82.5988 10.2008C81.8264 10.2008 81.3919 10.7352 81.3919 11.6491C81.3919 12.5702 81.8264 13.1005 82.5988 13.1005C83.3682 13.1005 83.8067 12.5665 83.8067 11.649Z" fill="white"/>
<path d="M85.913 9.54305H86.7684V10.2128H86.8348C86.9475 9.97222 87.1375 9.77058 87.3783 9.63595C87.6192 9.50131 87.8989 9.44039 88.1785 9.46167C88.3976 9.44625 88.6176 9.47718 88.8221 9.55216C89.0267 9.62715 89.2107 9.74428 89.3603 9.89486C89.51 10.0455 89.6216 10.2256 89.6868 10.4221C89.752 10.6185 89.7691 10.8262 89.737 11.0297V13.7588H88.8484V11.2386C88.8484 10.5611 88.5339 10.2242 87.8768 10.2242C87.728 10.2177 87.5795 10.2414 87.4415 10.2937C87.3034 10.3459 87.1791 10.4255 87.077 10.527C86.9748 10.6285 86.8974 10.7494 86.8498 10.8816C86.8023 11.0137 86.7859 11.1539 86.8016 11.2925V13.7588H85.913V9.54305Z" fill="white"/>
<path d="M94.7577 8.49365V9.56245H95.7332V10.2633H94.7577V12.431C94.7577 12.8726 94.952 13.066 95.3944 13.066C95.5076 13.0657 95.6207 13.0592 95.7332 13.0468V13.7398C95.5736 13.7665 95.4119 13.7808 95.2498 13.7823C94.2616 13.7823 93.8681 13.4568 93.8681 12.644V10.2632H93.1533V9.56241H93.8681V8.49365H94.7577Z" fill="white"/>
<path d="M96.9484 7.89746H97.8292V10.2207H97.8995C98.0177 9.97788 98.2129 9.7751 98.4586 9.63996C98.7042 9.50482 98.9884 9.44388 99.2725 9.46546C99.4904 9.45436 99.7083 9.48843 99.9105 9.56524C100.113 9.64205 100.294 9.75971 100.443 9.90982C100.591 10.0599 100.702 10.2388 100.767 10.4337C100.833 10.6285 100.852 10.8346 100.823 11.0371V13.7589H99.9336V11.2424C99.9336 10.569 99.5987 10.228 98.9708 10.228C98.8181 10.2162 98.6645 10.2359 98.5207 10.2856C98.3769 10.3352 98.2465 10.4137 98.1385 10.5155C98.0305 10.6173 97.9476 10.74 97.8955 10.8749C97.8435 11.0099 97.8235 11.1538 97.8371 11.2968V13.7589H96.9485L96.9484 7.89746Z" fill="white"/>
<path d="M106.005 12.6206C105.884 13.0059 105.622 13.3392 105.266 13.5621C104.909 13.7851 104.48 13.8835 104.054 13.8402C103.757 13.8476 103.462 13.7944 103.19 13.6843C102.917 13.5743 102.674 13.4101 102.476 13.203C102.278 12.996 102.13 12.7511 102.044 12.4854C101.957 12.2197 101.933 11.9395 101.974 11.6643C101.934 11.3882 101.959 11.1074 102.045 10.8409C102.131 10.5743 102.278 10.3283 102.475 10.1195C102.672 9.91063 102.914 9.74382 103.186 9.63034C103.458 9.51686 103.752 9.45937 104.05 9.46174C105.303 9.46174 106.058 10.2632 106.058 11.587V11.8773H102.879V11.9239C102.865 12.0786 102.886 12.2343 102.94 12.3811C102.994 12.5279 103.08 12.6624 103.193 12.7761C103.306 12.8898 103.443 12.9802 103.596 13.0414C103.748 13.1026 103.912 13.1334 104.078 13.1317C104.291 13.1555 104.506 13.1197 104.697 13.0287C104.887 12.9377 105.045 12.7956 105.149 12.6206L106.005 12.6206ZM102.879 11.262H105.153C105.164 11.1205 105.144 10.9784 105.093 10.8447C105.042 10.7111 104.962 10.589 104.857 10.4861C104.753 10.3833 104.627 10.302 104.487 10.2475C104.347 10.1931 104.196 10.1666 104.045 10.1699C103.891 10.168 103.739 10.1951 103.596 10.2493C103.454 10.3036 103.325 10.3839 103.216 10.4857C103.107 10.5875 103.021 10.7086 102.964 10.8419C102.906 10.9753 102.877 11.1181 102.879 11.262H102.879Z" fill="white"/>
</svg>
