<svg width="141" height="38" viewBox="0 0 141 38" fill="none" xmlns="http://www.w3.org/2000/svg">
<path d="M135.778 0H5.22234C2.33819 0 0.00012207 2.07069 0.00012207 4.625V32.375C0.00012207 34.9293 2.33819 37 5.22234 37H135.778C138.662 37 141 34.9293 141 32.375V4.625C141 2.07069 138.662 0 135.778 0Z" fill="#24272C"/>
<path d="M26.7431 30.1222H12.4428C11.2107 30.1193 10.03 29.6422 9.15891 28.7952C8.28778 27.9481 7.79716 26.8002 7.79437 25.6024V11.8463C7.79734 10.6486 8.28803 9.50081 9.15914 8.65397C10.0303 7.80709 11.2108 7.33004 12.4428 7.32715H26.7504C27.9823 7.33004 29.1629 7.80709 30.034 8.65397C30.9051 9.50081 31.3958 10.6486 31.3988 11.8463V25.6024C31.3909 26.7999 30.8977 27.9461 30.0261 28.7923C29.1545 29.6385 27.9748 30.1163 26.7431 30.1222Z" fill="#C42639"/>
<path d="M12.389 18.7328H13.0245V21.9411H12.389V20.6373H10.9587V21.9411H10.3231V18.7328H10.9587V20.0291H12.389V18.7328ZM15.9542 20.5737C15.9542 21.0904 15.6983 21.3715 15.248 21.3715C14.7976 21.3715 14.5332 21.0816 14.5332 20.5465V18.7328H13.8975V20.5614C13.8758 20.7494 13.8953 20.94 13.9545 21.1193C14.0138 21.2985 14.1113 21.4619 14.2399 21.5975C14.3685 21.7331 14.5251 21.8374 14.6979 21.9028C14.8709 21.9682 15.0559 21.9931 15.2394 21.9757C15.4254 21.992 15.6127 21.9655 15.7875 21.898C15.9622 21.8306 16.1201 21.7238 16.2496 21.5856C16.379 21.4474 16.4767 21.2813 16.5356 21.0992C16.5945 20.9172 16.613 20.724 16.5898 20.5337V18.7328H15.9542V20.5737ZM23.2732 20.936L22.5671 18.7328H22.0462L21.3399 20.936L20.6516 18.7328H19.9804L21.0663 21.9336H21.5872L22.2934 19.8299L22.9997 21.9336H23.5271L24.6131 18.7328H23.9596L23.2732 20.936ZM25.7538 20.5641H26.8998V19.9837H25.7526V19.3308H27.4207V18.751H25.1261V21.9519H27.4828V21.3715H25.7531L25.7538 20.5641ZM28.243 18.7355V21.9363H28.8694V18.7328L28.243 18.7355ZM18.8508 18.7537L20.2104 21.937H19.5511L19.2649 21.2637H17.8354L17.8176 21.3092L17.5538 21.9255H16.9096L18.2864 18.7246H18.8422L18.8508 18.7537ZM19.0012 20.6217L18.5508 19.5516L18.1005 20.6217L18.0741 20.6942H19.0269L19.0012 20.6217Z" fill="#F4F6F7"/>
<path d="M19.5967 14.6539C18.5015 14.656 17.4484 14.3191 16.6613 13.7151C15.8743 13.1109 15.4152 12.2872 15.3815 11.4187L16.0166 11.3975C16.0477 12.1343 16.4385 12.8326 17.1065 13.3451C17.7746 13.8576 18.6674 14.1441 19.5967 14.1441C20.5259 14.1441 21.4188 13.8576 22.0867 13.3451C22.7547 12.8326 23.1455 12.1343 23.1766 11.3975L23.8117 11.4187C23.7752 12.2863 23.3151 13.1087 22.5286 13.7124C21.7422 14.316 20.6909 14.6536 19.5967 14.6539Z" fill="#F4F6F7"/>
<path d="M59.6498 21.6493C59.6498 20.9371 59.6315 20.2946 59.5859 19.7229L59.5771 19.5646H61.2099L61.237 19.6874C61.2827 19.9424 61.3187 20.171 61.3371 20.3826C61.6354 20.1291 61.966 19.9134 62.3208 19.7407C62.7857 19.5172 63.2984 19.4026 63.8176 19.4063C64.3943 19.4051 64.9607 19.554 65.4571 19.8372C65.9932 20.1643 66.4153 20.6392 66.6688 21.2006C66.9949 21.9362 67.1502 22.7318 67.1239 23.5316C67.1444 24.3675 66.9797 25.1982 66.6409 25.9677C66.349 26.6181 65.8599 27.1679 65.2381 27.5445C64.5985 27.9165 63.8626 28.1056 63.1162 28.0899C62.7706 28.0887 62.4261 28.0564 62.0868 27.9933C61.8517 27.9525 61.6204 27.8936 61.3949 27.8172V31.1482L59.6464 31.3421V21.6493H59.6498ZM61.3984 26.408C61.6105 26.5015 61.8336 26.5695 62.063 26.6103C62.3411 26.67 62.6251 26.6995 62.91 26.6984C63.2532 26.7217 63.5972 26.6633 63.9116 26.5284C64.2261 26.3935 64.5014 26.1861 64.7135 25.9244C65.1729 25.2282 65.3898 24.4085 65.3326 23.5848C65.3988 22.8418 65.2136 22.0979 64.8047 21.4653C64.6473 21.2626 64.442 21.0995 64.2058 20.9893C63.9697 20.8791 63.7097 20.8251 63.4474 20.832C63.0563 20.8473 62.6726 20.9402 62.3203 21.1051C61.968 21.2699 61.6546 21.503 61.3997 21.7898L61.3984 26.408ZM50.8702 21.6493C50.8702 20.9456 50.8519 20.2946 50.8063 19.7229L50.7974 19.5646H52.4194L52.4466 19.6874C52.4922 19.9424 52.5282 20.171 52.5465 20.3826C52.8449 20.1291 53.1754 19.9134 53.5304 19.7407C53.9951 19.5172 54.5079 19.4026 55.027 19.4063C55.6038 19.4051 56.1701 19.554 56.6667 19.8372C57.2027 20.1643 57.6248 20.6392 57.8783 21.2006C58.2043 21.9362 58.3597 22.7318 58.3334 23.5316C58.3538 24.3675 58.1892 25.1982 57.8504 25.9677C57.5589 26.6156 57.0738 27.1646 56.4571 27.5445C55.8169 27.9153 55.0815 28.1043 54.3351 28.0899C53.9889 28.0879 53.6436 28.0547 53.3038 27.9907C53.0687 27.9498 52.8373 27.8909 52.6119 27.8145V31.1482L50.8635 31.3421V21.6493H50.8702ZM52.6187 26.408C52.8308 26.5015 53.0541 26.5695 53.2833 26.6103C53.5615 26.67 53.8455 26.6995 54.1304 26.6984C54.4737 26.7217 54.8175 26.6633 55.132 26.5284C55.4464 26.3935 55.7218 26.1861 55.934 25.9244C56.3933 25.2282 56.6102 24.4085 56.5531 23.5848C56.6195 22.8415 56.4342 22.0975 56.0251 21.4647C55.8677 21.262 55.6624 21.0988 55.4263 20.9886C55.1901 20.8784 54.93 20.8245 54.6678 20.8313C54.2764 20.8465 53.8925 20.9396 53.5399 21.1044C53.1873 21.2694 52.8737 21.5027 52.6187 21.7898V26.408ZM112.501 31.3158C112.013 31.3241 111.526 31.2496 111.064 31.0956L110.937 31.0516L111.283 29.6969L111.438 29.7409C111.547 29.7671 111.693 29.8026 111.902 29.8375C112.08 29.8707 112.259 29.8883 112.44 29.8901C112.641 29.8954 112.842 29.859 113.027 29.7832C113.212 29.7073 113.379 29.5938 113.514 29.4505C113.88 29.0556 114.162 28.5954 114.343 28.0958L114.489 27.7529L111.284 19.564H113.168L114.963 24.4981C115.154 25.0346 115.3 25.4831 115.4 25.8436C115.536 25.4304 115.672 24.9993 115.828 24.5684L117.605 19.564H119.432L116.144 28.0518C115.912 28.6912 115.609 29.3046 115.242 29.8816C114.956 30.3213 114.566 30.689 114.104 30.9544C113.61 31.204 113.059 31.3288 112.501 31.3158ZM100.571 28.0787C99.8023 28.1025 99.0412 27.9264 98.3665 27.5689C97.7567 27.2279 97.2729 26.7113 96.9821 26.0912C96.6553 25.3744 96.4966 24.5966 96.5174 23.8135C96.4982 23.003 96.6632 22.1984 97.0005 21.4562C97.2885 20.8266 97.7645 20.2941 98.3665 19.926C98.9695 19.5705 99.6646 19.3881 100.37 19.4004C101.066 19.3778 101.752 19.5687 102.328 19.9457C102.846 20.3071 103.25 20.8005 103.494 21.3707C103.745 21.9714 103.872 22.6138 103.867 23.2616V23.9298H98.2938C98.2666 24.6553 98.5013 25.3676 98.9588 25.9441C99.2022 26.1874 99.4979 26.3764 99.8255 26.4979C100.152 26.6195 100.503 26.6706 100.853 26.6477C101.647 26.6445 102.431 26.4734 103.149 26.1465L103.304 26.0762L103.732 27.3514L103.613 27.4132C103.179 27.625 102.72 27.7872 102.247 27.8968C101.699 28.0272 101.135 28.0883 100.571 28.0787ZM102.101 22.6696C102.078 22.1525 101.891 21.6548 101.564 21.2446C101.409 21.0745 101.216 20.9403 101 20.852C100.783 20.7637 100.55 20.7237 100.316 20.7347C100.075 20.7268 99.8343 20.769 99.6113 20.8585C99.3883 20.9481 99.1876 21.0829 99.0228 21.2538C98.6699 21.6517 98.445 22.141 98.3772 22.6611H102.102L102.101 22.6696ZM94.6506 28.0787C94.3843 28.0965 94.1171 28.0588 93.8672 27.9681C93.6173 27.8775 93.3905 27.7359 93.2023 27.5531C92.8373 27.1064 92.6586 26.5438 92.7015 25.9763V16.116L94.4411 15.9314V25.7391C94.4162 25.9852 94.4668 26.2329 94.5866 26.4513C94.647 26.5154 94.7224 26.5648 94.8063 26.5954C94.8903 26.626 94.9805 26.637 95.0697 26.6274C95.206 26.6224 95.341 26.5987 95.4704 26.5571L95.6344 26.5131L95.88 27.8586L95.7616 27.9026C95.5849 27.9628 95.4027 28.0069 95.2174 28.034C95.0296 28.0607 94.8404 28.0757 94.6506 28.0787ZM90.2333 28.0787C89.967 28.0965 89.6998 28.0588 89.4498 27.9681C89.1999 27.8775 88.9732 27.7359 88.7849 27.5531C88.4199 27.1064 88.2412 26.5438 88.2842 25.9763V16.116L90.0238 15.9314V25.7391C89.9988 25.9852 90.0495 26.2329 90.1694 26.4513C90.2297 26.5154 90.305 26.5648 90.389 26.5954C90.4729 26.626 90.5632 26.637 90.6524 26.6274C90.7887 26.6224 90.9236 26.5987 91.053 26.5571L91.217 26.5131L91.4626 27.8586L91.3443 27.9026C91.1675 27.9628 90.9853 28.0069 90.8 28.034C90.6123 28.0607 90.423 28.0757 90.2333 28.0787ZM81.8816 28.0787C81.4106 28.084 80.9443 27.9878 80.5169 27.7969C80.1119 27.6075 79.7733 27.3078 79.5426 26.9349C79.2957 26.5151 79.1728 26.0378 79.1875 25.5552C79.1739 25.1784 79.2507 24.8037 79.4119 24.4605C79.5731 24.1172 79.8144 23.8146 80.1168 23.5763C80.9991 23.0096 82.0546 22.7489 83.1102 22.8371C83.5975 22.8371 84.0841 22.8665 84.5675 22.9252V22.8897C84.6268 22.304 84.4568 21.718 84.0913 21.2472C83.9091 21.0857 83.6949 20.9616 83.4616 20.8826C83.2283 20.8035 82.9807 20.7711 82.7341 20.7873C82.3093 20.7889 81.8868 20.845 81.4774 20.9542C81.0766 21.0539 80.6863 21.1893 80.3114 21.3589L80.1386 21.4377L79.8196 20.083L79.929 20.0304C80.3437 19.8469 80.7768 19.7052 81.2217 19.608C81.7851 19.476 82.3631 19.4109 82.9429 19.4142C83.556 19.3997 84.165 19.5139 84.7281 19.7486C85.2461 19.9954 85.6586 20.4093 85.8941 20.9187C86.1956 21.5984 86.3351 22.3349 86.3024 23.0737V26.2575C86.3024 26.5919 86.3207 27.0932 86.3663 27.7686L86.3752 27.9269H84.7628L84.7355 27.8126C84.6798 27.5487 84.6431 27.2813 84.6261 27.0124C84.3282 27.2882 83.9869 27.5168 83.615 27.6897C83.0767 27.9484 82.483 28.0817 81.8816 28.0787ZM83.2749 24.0237C82.6352 23.9601 81.9915 24.1023 81.4441 24.4284C81.2841 24.5558 81.157 24.7175 81.0732 24.9007C80.9893 25.084 80.9509 25.2835 80.9611 25.4835C80.9442 25.6507 80.9659 25.8195 81.0248 25.9777C81.0836 26.1359 81.1781 26.2794 81.3013 26.3981C81.5657 26.6043 81.9002 26.7078 82.2394 26.6885C82.7021 26.6829 83.1572 26.5746 83.5695 26.3718C83.9524 26.1943 84.2958 25.9464 84.5804 25.6418V24.094C84.0947 24.05 83.6661 24.0237 83.2749 24.0237ZM73.721 28.0787C72.6784 28.1032 71.6476 27.8604 70.7337 27.3751C69.9043 26.9147 69.2363 26.2257 68.8152 25.3962C68.3611 24.4734 68.1364 23.461 68.1594 22.4397C68.1262 21.3381 68.3899 20.2471 68.9248 19.2735C69.4048 18.4208 70.1372 17.7258 71.0283 17.2769C71.954 16.8188 72.9817 16.5862 74.0218 16.5996C74.6573 16.5958 75.2907 16.6698 75.907 16.8197C76.4796 16.9593 77.0352 17.1576 77.5642 17.411L77.6915 17.4727L77.1152 18.8755L76.9601 18.8051C76.0645 18.3537 75.0738 18.1065 74.0639 18.0824C73.3235 18.0674 72.5918 18.2403 71.942 18.5837C71.3268 18.9289 70.8308 19.4418 70.5161 20.058C70.1505 20.7987 69.9726 21.6129 69.9969 22.4331C69.9852 23.1696 70.1213 23.9014 70.3977 24.588C70.6491 25.1912 71.0842 25.7064 71.6454 26.0657C72.2932 26.4497 73.0444 26.6396 73.804 26.6109C74.2257 26.6113 74.6465 26.573 75.0606 26.4966C75.4401 26.4268 75.8144 26.3329 76.1811 26.2155V23.9712H73.3659V22.502H77.9201V27.1287L77.8289 27.1727C77.1885 27.4705 76.5155 27.6976 75.8226 27.85C75.1318 27.9939 74.4278 28.0705 73.721 28.0787ZM105.734 27.9203V21.7373C105.734 21.2886 105.716 20.6112 105.67 19.7144L105.662 19.5561H107.283L107.301 19.6874C107.328 19.9161 107.365 20.1888 107.383 20.5139C107.392 20.6283 107.401 20.7249 107.411 20.8222C107.542 20.6325 107.685 20.4504 107.838 20.2768C108.065 20.019 108.34 19.8042 108.649 19.6434C108.982 19.4745 109.355 19.3898 109.733 19.3971C110.003 19.394 110.273 19.4297 110.533 19.5028L110.66 19.5383L110.405 21.06L110.241 21.016C110.051 20.9693 109.856 20.9456 109.659 20.9456C109.252 20.9378 108.854 21.0615 108.529 21.2971C108.113 21.6264 107.75 22.0149 107.454 22.4495V27.9118H105.733L105.734 27.9203ZM48.1646 27.9203L46.8801 24.7543H42.2907L41.043 27.9203H39.1666L43.7929 16.7415H45.344L50.0797 27.9203H48.1646ZM46.2883 23.303L44.9766 20.0225C44.867 19.7597 44.7214 19.407 44.5684 18.9582C44.4589 19.2926 44.3316 19.6356 44.1861 19.9963L42.8656 23.3036L46.2883 23.303Z" fill="#F4F6F7"/>
<path d="M38.9741 12.2524L41.1591 6.75785H41.9703L44.2989 12.2524H43.4412L42.7775 10.5883H40.3985L39.7736 12.2524H38.9741ZM40.6158 9.99609H42.5447L41.9509 8.47443C41.7698 8.01218 41.6352 7.63238 41.5473 7.33504C41.4748 7.68735 41.3726 8.03717 41.2406 8.38448L40.6158 9.99609ZM46.2547 12.2524L44.0502 6.75785H44.8653L46.3439 10.7495C46.463 11.0693 46.5626 11.3692 46.6428 11.649C46.7307 11.3491 46.833 11.0493 46.9494 10.7495L48.4863 6.75785H49.2547L47.027 12.2524H46.2547ZM49.0332 12.2524L51.2183 6.75785H52.0294L54.358 12.2524H53.5003L52.8366 10.5883H50.4575L49.8327 12.2524H49.0332ZM50.6749 9.99609H52.6037L52.0099 8.47443C51.8288 8.01218 51.6943 7.63238 51.6064 7.33504C51.5339 7.68735 51.4317 8.03717 51.2997 8.38448L50.6749 9.99609ZM55.4056 12.2524V6.75785H56.1585V12.2524H55.4056ZM57.7766 12.2524V6.75785H58.5295V11.604H61.3316V12.2524H57.7766ZM61.9252 12.2524L64.1102 6.75785H64.9214L67.2499 12.2524H66.3923L65.7286 10.5883H63.3495L62.7247 12.2524H61.9252ZM63.5668 9.99609H65.4957L64.9019 8.47443C64.7208 8.01218 64.5862 7.63238 64.4983 7.33504C64.4259 7.68735 64.3236 8.03717 64.1917 8.38448L63.5668 9.99609ZM68.1385 12.2524V6.75785H70.273C70.7077 6.75785 71.0557 6.81407 71.3171 6.9265C71.5809 7.03645 71.7867 7.20761 71.9341 7.43999C72.0842 7.66986 72.1592 7.91098 72.1592 8.16334C72.1592 8.39822 72.0932 8.61935 71.9613 8.82675C71.8293 9.03413 71.6301 9.20155 71.3636 9.32897C71.7077 9.4264 71.9716 9.59258 72.1553 9.82748C72.3416 10.0624 72.4347 10.3397 72.4347 10.6595C72.4347 10.9169 72.3778 11.1567 72.264 11.3791C72.1527 11.599 72.0143 11.7689 71.8487 11.8889C71.6831 12.0088 71.4749 12.1 71.2239 12.1624C70.9755 12.2224 70.6702 12.2524 70.3079 12.2524H68.1385ZM68.8914 9.06662H70.1217C70.4554 9.06662 70.6947 9.04537 70.8397 9.0029C71.0312 8.94793 71.1747 8.85672 71.2704 8.72929C71.3687 8.60186 71.418 8.44195 71.418 8.24955C71.418 8.06715 71.3726 7.90724 71.2821 7.76981C71.1915 7.62988 71.0622 7.53493 70.894 7.48496C70.7258 7.43249 70.4374 7.40625 70.0285 7.40625H68.8914V9.06662ZM68.8914 11.604H70.3079C70.5512 11.604 70.7219 11.5953 70.8202 11.5778C70.9936 11.5478 71.1385 11.4978 71.2549 11.4279C71.3713 11.3579 71.4671 11.2567 71.5422 11.1242C71.6172 10.9893 71.6547 10.8344 71.6547 10.6595C71.6547 10.4547 71.6003 10.2772 71.4916 10.1273C71.383 9.97484 71.2316 9.86867 71.0376 9.80875C70.8461 9.74621 70.5693 9.71504 70.207 9.71504H68.8914V11.604ZM73.7579 12.2524V6.75785H74.5109V11.604H77.3129V12.2524H73.7579ZM78.5468 12.2524V6.75785H82.6608V7.40625H79.2997V9.0891H82.4473V9.73376H79.2997V11.604H82.7927V12.2524H78.5468ZM86.452 9.57638C86.452 8.66433 86.7055 7.95096 87.2126 7.43623C87.7197 6.91901 88.3743 6.6604 89.1764 6.6604C89.7017 6.6604 90.1752 6.78159 90.5969 7.02396C91.0186 7.26633 91.3394 7.60489 91.5594 8.03967C91.7819 8.47193 91.8932 8.96292 91.8932 9.51262C91.8932 10.0699 91.7767 10.5683 91.5439 11.0081C91.311 11.4478 90.9811 11.7814 90.5542 12.0088C90.1273 12.2337 89.6667 12.3461 89.1726 12.3461C88.6369 12.3461 88.1583 12.2212 87.7365 11.9713C87.3148 11.7215 86.9952 11.3804 86.7779 10.9481C86.5605 10.5159 86.452 10.0585 86.452 9.57638ZM87.2281 9.58762C87.2281 10.2497 87.4118 10.7719 87.7793 11.1542C88.1492 11.534 88.6124 11.7239 89.1687 11.7239C89.7352 11.7239 90.201 11.5315 90.5659 11.1467C90.9332 10.7619 91.1169 10.216 91.1169 9.50888C91.1169 9.06162 91.038 8.67183 90.8802 8.3395C90.725 8.00468 90.496 7.74607 90.1932 7.56367C89.8932 7.37877 89.5555 7.28631 89.1803 7.28631C88.6473 7.28631 88.1881 7.46372 87.8025 7.81853C87.4196 8.17084 87.2281 8.76053 87.2281 9.58762ZM93.1775 12.2524V6.75785H93.9498L96.9383 11.0718V6.75785H97.6598V12.2524H96.8878L93.8994 7.93472V12.2524H93.1775Z" fill="#F4F6F7"/>
<path d="M135.778 0.74C136.941 0.74 138.057 1.14931 138.88 1.87789C139.702 2.60647 140.165 3.59463 140.165 4.625V32.375C140.165 33.4054 139.702 34.3935 138.88 35.1221C138.057 35.8507 136.941 36.26 135.778 36.26H5.22234C4.05893 36.26 2.94316 35.8507 2.1205 35.1221C1.29784 34.3935 0.835677 33.4054 0.835677 32.375V4.625C0.835677 3.59463 1.29784 2.60647 2.1205 1.87789C2.94316 1.14931 4.05893 0.74 5.22234 0.74H135.778ZM135.778 0H5.22234C3.83732 0 2.50903 0.487275 1.52967 1.35463C0.550319 2.22199 0.00012207 3.39838 0.00012207 4.625V32.375C0.00012207 33.6016 0.550319 34.7781 1.52967 35.6453C2.50903 36.5127 3.83732 37 5.22234 37H135.778C137.163 37 138.491 36.5127 139.471 35.6453C140.45 34.7781 141 33.6016 141 32.375V4.625C141 3.39838 140.45 2.22199 139.471 1.35463C138.491 0.487275 137.163 0 135.778 0Z" fill="#E3E8EA"/>
</svg>
