<svg width="40" height="40" viewBox="0 0 40 40" fill="none" xmlns="http://www.w3.org/2000/svg">
    <path d="M38.0953 35.8334C38.0953 37.082 37.082 38.0953 35.8334 38.0953H4.16669C2.91812 38.0953 1.90479 37.082 1.90479 35.8334V4.16669C1.90479 2.91812 2.91812 1.90479 4.16669 1.90479H35.8334C37.082 1.90479 38.0953 2.91812 38.0953 4.16669V35.8334Z" fill="#3B5998"/>
    <path d="M26.7855 38.0953V24.5239H31.3093L32.4403 18.8691H26.7855V16.6072C26.7855 14.3453 27.9187 13.2143 30.1784 13.2143H32.4403V7.55957C31.3093 7.55957 29.9069 7.55957 27.9165 7.55957C23.7602 7.55957 21.1307 10.8178 21.1307 15.4762V18.8691H16.6069V24.5239H21.1307V38.0953H26.7855Z" fill="white"/>
</svg>
