<svg width="112" height="33" viewBox="0 0 112 33" fill="none" xmlns="http://www.w3.org/2000/svg">
<g clip-path="url(#clip0_1_4)">
<g clip-path="url(#clip1_1_4)">
<g clip-path="url(#clip2_1_4)">
<path d="M17.7954 8.45105H13.6063L8.0166 22.2038H11.603L15.7008 11.5814L19.7987 22.2038H23.3818L17.7954 8.45105Z" fill="#FFB500"/>
<path d="M14.1862 32.3083L14.1569 32.3051H14.1536H14.1503H14.1471H14.1438C12.0363 32.0933 10.0134 31.4549 8.18276 30.4581C4.65498 28.5297 1.86012 25.2593 0.64185 21.1028C-0.57968 16.9431 0.00339712 12.6824 1.92853 9.1579C2.91878 7.34352 4.26735 5.72133 5.90909 4.4086L5.94166 4.38254L5.94492 4.37928C8.37495 2.389 11.349 1.06323 14.5705 0.646285C14.5868 0.643027 14.6943 0.633255 14.7106 0.633255L16.0624 3.95907C16.0429 3.95907 15.9321 3.96885 15.9126 3.9721C13.0396 4.15126 10.375 5.22946 8.22836 6.95589C8.19579 6.98195 8.15996 7.01127 8.12738 7.03733C8.07527 7.07967 8.01989 7.12528 7.96777 7.17088L7.96451 7.17414L7.96126 7.1774L7.958 7.18065L7.95474 7.18391L7.95148 7.18717C7.93845 7.2002 7.92217 7.20997 7.90914 7.21974C6.69087 8.22303 5.69084 9.44456 4.94489 10.8062C3.43997 13.5587 2.98719 16.8877 3.94161 20.1386C4.89603 23.3895 7.07524 25.9466 9.82775 27.4483C11.2871 28.2463 12.906 28.748 14.5901 28.9011C18.2547 29.204 21.7108 28.0248 24.3558 25.8554C24.4829 25.7512 24.6099 25.6437 24.7369 25.5329L26.0888 28.862C22.8053 31.3767 18.613 32.709 14.1862 32.3148V32.3083Z" fill="#FFB500"/>
<path d="M48.5649 6.09919H45.9296V21.497H48.5649V6.09919ZM52.2197 9.17745C53.1709 9.17745 53.881 8.49013 53.881 7.51617C53.881 6.565 53.1709 5.85489 52.2197 5.85489C51.2685 5.85489 50.5193 6.565 50.5193 7.51617C50.5193 8.49013 51.249 9.17745 52.2197 9.17745ZM53.5161 10.4934H50.8613V21.4937H53.5161V10.4934ZM61.4251 8.04061C61.9105 8.04061 62.5001 8.18394 63.1874 8.48688L64.018 6.42168C63.0441 5.91678 62.0538 5.67247 61.0603 5.67247C58.4479 5.67247 56.6856 7.21323 56.6856 9.98854V10.4934H54.9429V12.7215H56.6856V21.4937H59.3208V12.7215H62.7639V10.4934H59.3208V10.0472C59.3208 8.75073 60.0701 8.04061 61.4284 8.04061H61.4251Z" fill="black"/>
<path d="M41.2064 15.9854C41.2064 16.9366 40.9034 17.7282 40.2943 18.3764C39.6852 19.0246 38.7438 19.3503 37.7926 19.3503C36.8415 19.3503 36.0662 19.0311 35.4636 18.3764C34.8707 17.7347 34.571 16.9366 34.571 15.9854C34.571 15.0538 34.8707 14.259 35.4636 13.614C36.0662 12.9593 36.8415 12.6401 37.7926 12.6401C38.7438 12.6401 39.6884 12.9626 40.2943 13.614C40.9034 14.2623 41.2064 15.0538 41.2064 15.9854ZM41.1445 11.5163C40.1608 10.6693 38.9555 10.2328 37.5581 10.2328C35.9978 10.2328 34.5091 10.7801 33.4765 11.855C32.4439 12.93 31.9358 14.3079 31.9358 15.9464C31.9358 17.5881 32.4439 18.9855 33.4765 20.0996C34.5091 21.2136 35.9782 21.7608 37.5581 21.7608C38.9979 21.7608 40.063 21.3439 41.1445 20.4807V21.497H43.656V10.4967H41.1445V11.5195V11.5163Z" fill="black"/>
<path d="M71.0736 21.7413C72.1876 21.7413 73.1193 21.4155 73.8294 20.7901C74.5395 20.1614 74.9043 19.3927 74.9043 18.4806C74.9043 17.3047 74.2952 16.3926 73.0606 15.7444C72.7577 15.5815 72.2691 15.36 71.6436 15.0962L70.4091 14.5294C69.8227 14.246 69.5166 13.7997 69.5166 13.2134C69.5166 12.4642 70.0833 11.8355 71.1159 11.8355C72.0866 11.8355 72.8587 12.2622 73.4059 13.1124L74.6209 12.0375C73.9727 10.9039 72.6143 10.2947 71.2365 10.2947C70.2039 10.2947 69.3537 10.5781 68.725 11.1449C68.0963 11.7117 67.7934 12.4218 67.7934 13.2916C67.7934 14.4251 68.3406 15.2981 69.4156 15.8845C69.6599 16.0278 70.1029 16.2297 70.7739 16.5131C71.4417 16.7965 71.8684 16.9985 72.0899 17.1223C72.7805 17.5066 73.1225 17.992 73.1225 18.5816C73.1225 19.4122 72.331 20.1419 71.1387 20.1419C70.1452 20.1419 69.1322 19.5556 68.5035 18.3992L67.1256 19.3503C67.9367 20.9497 69.4547 21.7413 71.0768 21.7413H71.0736ZM78.5461 21.497V15.4382C78.5461 14.4447 78.823 13.6303 79.3767 13.0082C79.937 12.3762 80.6732 12.057 81.5853 12.057C83.2661 12.057 84.4029 13.2525 84.4029 15.4414V21.5002H86.2043V14.9365C86.2043 13.4577 85.8004 12.3436 84.9697 11.5521C84.1391 10.7605 83.126 10.3762 81.9305 10.3762C80.4517 10.3762 79.1552 11.0049 78.4875 11.9984V6.16434H76.7447V21.5002H78.5494L78.5461 21.497ZM87.8558 16.0669C87.8558 17.6663 88.3835 19.0246 89.4552 20.1191C90.5269 21.2136 91.8852 21.7608 93.5269 21.7608C95.1687 21.7608 96.527 21.2136 97.5987 20.1191C98.6704 19.0246 99.1981 17.6663 99.1981 16.0669C99.1981 14.487 98.6443 13.1547 97.5759 12.057C96.4977 10.9495 95.1654 10.3957 93.5237 10.3957C91.8819 10.3957 90.5301 10.9495 89.4519 12.057C88.3835 13.1547 87.8525 14.487 87.8525 16.0669H87.8558ZM97.3772 16.0669C97.3772 17.1809 97.0124 18.1353 96.2632 18.9236C95.514 19.7119 94.6019 20.0995 93.5269 20.0995C92.452 20.0995 91.5399 19.7152 90.7907 18.9236C90.0415 18.1353 89.6767 17.1809 89.6767 16.0669C89.6767 14.9724 90.0415 14.0408 90.7907 13.2525C91.5399 12.4642 92.452 12.057 93.5269 12.057C94.6019 12.057 95.514 12.4609 96.2632 13.2525C97.0124 14.0408 97.3772 14.9756 97.3772 16.0669ZM106.586 10.3957C104.967 10.3957 103.648 11.0439 102.657 12.3208V10.6596H100.853V25.9564H102.657V19.8976C103.628 21.1321 104.928 21.7608 106.547 21.7608C108.107 21.7608 109.41 21.2168 110.436 20.1191C111.475 19.0116 111.996 17.6663 111.996 16.0864C111.996 14.5066 111.469 13.1678 110.436 12.0537C109.404 10.9397 108.127 10.3925 106.586 10.3925V10.3957ZM106.384 20.0995C105.228 20.0995 104.306 19.7249 103.609 18.9432C102.908 18.1646 102.576 17.2005 102.576 16.0669C102.576 14.9528 102.921 13.9984 103.609 13.2297C104.315 12.4381 105.231 12.0537 106.384 12.0537C107.518 12.0537 108.426 12.4446 109.14 13.2297C109.843 14.0049 110.192 14.9528 110.192 16.0669C110.192 17.2005 109.853 18.1581 109.14 18.9432C108.436 19.7184 107.518 20.0995 106.384 20.0995Z" fill="black"/>
</g>
</g>
</g>
<defs>
<clipPath id="clip0_1_4">
<rect width="112" height="31.75" fill="white" transform="translate(0 0.630005)"/>
</clipPath>
<clipPath id="clip1_1_4">
<rect width="112" height="31.75" fill="white" transform="translate(0 0.630005)"/>
</clipPath>
<clipPath id="clip2_1_4">
<rect width="111.991" height="31.75" fill="white" transform="translate(0.00427246 0.630005)"/>
</clipPath>
</defs>
</svg>
