<svg width="40" height="40" viewBox="0 0 40 40" fill="none" xmlns="http://www.w3.org/2000/svg">
    <g clip-path="url(#clip0_6082:29878)">
        <path d="M39 33.3372C39 36.4084 36.523 38.8979 33.4676 38.8979H6.53239C3.4769 38.8979 1 36.4084 1 33.3372V6.45871C1 3.38756 3.4769 0.897949 6.53239 0.897949H33.4676C36.5231 0.897949 39 3.38756 39 6.45871V33.3372Z" fill="#FAAB62"/>
        <path d="M38.805 33.1992C38.805 36.2388 36.3534 38.7028 33.3294 38.7028H6.67081C3.64675 38.7028 1.19531 36.2388 1.19531 33.1992V6.59672C1.19531 3.55715 3.64684 1.09314 6.67081 1.09314H33.3294C36.3534 1.09314 38.805 3.55724 38.805 6.59672V33.1992Z" fill="#F7931E"/>
        <path d="M19.9787 6.57715C16.2126 6.57715 13.1597 9.64585 13.1597 13.4312C13.1597 17.2166 16.2126 20.2855 19.9787 20.2855C23.7448 20.2855 26.7978 17.2166 26.7978 13.4312C26.7978 9.64585 23.7448 6.57715 19.9787 6.57715ZM19.9787 16.2647C18.4219 16.2647 17.1599 14.996 17.1599 13.4313C17.1599 11.8665 18.4219 10.598 19.9787 10.598C21.5355 10.598 22.7976 11.8665 22.7976 13.4313C22.7976 14.996 21.5355 16.2647 19.9787 16.2647Z" fill="white"/>
        <path d="M22.3861 25.7394C25.1161 25.1804 26.752 23.8809 26.8385 23.8112C27.6374 23.1673 27.7657 21.9944 27.1251 21.1913C26.4845 20.3884 25.3177 20.2594 24.5187 20.9033C24.5018 20.917 22.757 22.2623 19.8861 22.2643C17.0153 22.2623 15.2336 20.917 15.2168 20.9033C14.4177 20.2594 13.2509 20.3884 12.6104 21.1913C11.9697 21.9944 12.098 23.1673 12.8969 23.8112C12.9846 23.8819 14.688 25.2152 17.4945 25.7611L13.5832 29.8697C12.8724 30.6106 12.8937 31.7904 13.6309 32.5048C13.9907 32.8535 14.4544 33.0269 14.9178 33.0269C15.4035 33.0269 15.8888 32.8361 16.2526 32.4568L19.8862 28.5662L23.8868 32.482C24.6117 33.2094 25.7854 33.2082 26.5089 32.4799C27.2324 31.7515 27.2315 30.5716 26.5069 29.8444L22.3861 25.7394Z" fill="white"/>
        <path d="M19.8853 22.2643C19.8817 22.2643 19.8889 22.2644 19.8853 22.2644C19.8818 22.2644 19.889 22.2643 19.8853 22.2643Z" fill="white"/>
    </g>
    <defs>
        <clipPath id="clip0_6082:29878">
            <rect width="38" height="38" fill="white" transform="translate(1 0.897949)"/>
        </clipPath>
    </defs>
</svg>
