<svg width="142" height="38" viewBox="0 0 142 38" fill="none" xmlns="http://www.w3.org/2000/svg">
<path d="M136.13 0H5.23554C2.3439 0 -0.000244141 2.10363 -0.000244141 4.69858V32.8901C-0.000244141 35.485 2.3439 37.5887 5.23554 37.5887H136.13C139.022 37.5887 141.366 35.485 141.366 32.8901V4.69858C141.366 2.10363 139.022 0 136.13 0Z" fill="#24272C"/>
<path d="M136.13 0.751774C137.297 0.751774 138.415 1.1676 139.24 1.90777C140.065 2.64794 140.528 3.65182 140.528 4.69858V32.8901C140.528 33.9368 140.065 34.9407 139.24 35.6809C138.415 36.4211 137.297 36.8369 136.13 36.8369H5.23554C4.0691 36.8369 2.95044 36.4211 2.12564 35.6809C1.30085 34.9407 0.837481 33.9368 0.837481 32.8901V4.69858C0.837481 3.65182 1.30085 2.64794 2.12564 1.90777C2.95044 1.1676 4.0691 0.751774 5.23554 0.751774H136.13ZM136.13 0H5.23554C3.84692 0 2.51518 0.495028 1.53328 1.37618C0.551381 2.25734 -0.000244141 3.45244 -0.000244141 4.69858V32.8901C-0.000244141 34.1362 0.551381 35.3313 1.53328 36.2125C2.51518 37.0936 3.84692 37.5887 5.23554 37.5887H136.13C137.519 37.5887 138.85 37.0936 139.832 36.2125C140.814 35.3313 141.366 34.1362 141.366 32.8901V4.69858C141.366 3.45244 140.814 2.25734 139.832 1.37618C138.85 0.495028 137.519 0 136.13 0Z" fill="#E3E8EA"/>
<path d="M42.0303 9.62264C42.0449 9.96726 41.9935 10.3114 41.8792 10.6344C41.765 10.9574 41.5903 11.2526 41.3656 11.5021C41.1138 11.7777 40.8099 11.9938 40.4739 12.1363C40.1379 12.2788 39.7772 12.3445 39.4156 12.329C39.0519 12.3376 38.6904 12.267 38.3535 12.1215C38.0165 11.976 37.7114 11.7588 37.4568 11.4833C36.9403 10.9232 36.6512 10.171 36.6512 9.38771C36.6512 8.60442 36.9403 7.85225 37.4568 7.29214C37.8517 6.88307 38.3517 6.60684 38.8942 6.49817C39.4367 6.38949 39.9974 6.45321 40.5058 6.68133C40.8254 6.82062 41.1105 7.03606 41.339 7.31094L40.8692 7.80899C40.6932 7.58418 40.4702 7.40598 40.2178 7.28853C39.9655 7.17108 39.6908 7.11762 39.4156 7.13239C39.0682 7.13494 38.7266 7.22767 38.4208 7.40248C38.115 7.57729 37.8542 7.82886 37.6613 8.13519C37.4683 8.44152 37.3491 8.7933 37.314 9.15977C37.2789 9.52624 37.329 9.89625 37.4599 10.2375C37.5908 10.5787 37.7985 10.8807 38.065 11.1171C38.3314 11.3535 38.6484 11.5172 38.9882 11.5937C39.3281 11.6703 39.6804 11.6574 40.0145 11.5563C40.3486 11.4551 40.6542 11.2687 40.9047 11.0134C41.1754 10.6987 41.3324 10.2926 41.3478 9.86697H39.4156V9.19037H41.9949C42.0151 9.33355 42.0269 9.47792 42.0303 9.62264Z" fill="white"/>
<path fill-rule="evenodd" clip-rule="evenodd" d="M40.4705 6.7676C39.9782 6.54671 39.4353 6.485 38.91 6.59024C38.385 6.69541 37.901 6.96262 37.5187 7.35834C37.0189 7.9008 36.7391 8.62907 36.7391 9.38745C36.7391 10.1462 37.0192 10.8747 37.5194 11.4173C37.7655 11.6836 38.0605 11.8936 38.3862 12.0342C38.7119 12.1749 39.0613 12.2431 39.4129 12.2348L39.4157 12.2347L39.4185 12.2349C39.7676 12.2498 40.1158 12.1864 40.4402 12.0488C40.7646 11.9113 41.0579 11.7027 41.301 11.4367C41.5173 11.1964 41.6855 10.9122 41.7955 10.6012C41.9056 10.2901 41.9551 9.95853 41.941 9.62658L41.941 9.62474C41.9383 9.51081 41.9302 9.39712 41.9169 9.28408H39.5035V9.77273H41.4392L41.4357 9.87032C41.4194 10.3181 41.2543 10.7454 40.9694 11.0765L40.9675 11.0788L40.9654 11.0809C40.7045 11.3468 40.3861 11.541 40.0381 11.6464C39.6901 11.7517 39.3231 11.7651 38.9691 11.6854C38.6151 11.6056 38.2849 11.4352 38.0074 11.1889C37.7298 10.9426 37.5134 10.628 37.3771 10.2726C37.2407 9.91718 37.1885 9.53175 37.2251 9.15001C37.2617 8.76827 37.3859 8.40184 37.5868 8.08274C37.7878 7.76364 38.0595 7.50159 38.378 7.3195C38.696 7.13773 39.0511 7.04115 39.4123 7.03817C39.7007 7.02301 39.9884 7.07917 40.2527 7.20222C40.488 7.31173 40.699 7.47155 40.8728 7.67128L41.2156 7.30781C41.0063 7.07466 40.7528 6.89061 40.4714 6.76798L40.4705 6.7676ZM40.5392 6.59433C40.0148 6.35915 39.4365 6.29348 38.877 6.40556C38.3174 6.51768 37.8015 6.80265 37.3941 7.22467L37.3927 7.22619C36.86 7.80385 36.5618 8.5796 36.5618 9.38745C36.5618 10.1953 36.86 10.971 37.3927 11.5487C37.6557 11.8334 37.9712 12.058 38.3193 12.2083C38.6666 12.3582 39.0392 12.4312 39.4141 12.4228C39.7872 12.4383 40.1593 12.3704 40.5061 12.2233C40.8537 12.0759 41.168 11.8523 41.4285 11.5672L41.4289 11.5667C41.6619 11.308 41.843 11.002 41.9615 10.6672C42.0798 10.3326 42.1331 9.97607 42.1182 9.61909C42.1146 9.47082 42.1025 9.32292 42.0818 9.17622L42.0705 9.09614H39.3262V9.96067H41.2524C41.2192 10.3273 41.0751 10.6737 40.8404 10.9476C40.6008 11.1911 40.3087 11.369 39.9895 11.4656C39.6693 11.5626 39.3316 11.5749 39.0059 11.5016C38.6802 11.4282 38.3765 11.2714 38.1211 11.0448C37.8658 10.8182 37.6667 10.5288 37.5413 10.2018C37.4158 9.8748 37.3678 9.5202 37.4014 9.169C37.4351 8.8178 37.5494 8.48068 37.7343 8.18711C37.9192 7.89354 38.1691 7.65246 38.4622 7.48493C38.7552 7.3174 39.0825 7.22854 39.4155 7.2261L39.4174 7.22608L39.4194 7.22598C39.6808 7.21194 39.9418 7.26273 40.1815 7.37431C40.4212 7.48588 40.6331 7.65518 40.8003 7.86874L40.8624 7.94807L41.4598 7.31474L41.4047 7.24855C41.1674 6.96296 40.8712 6.73912 40.5392 6.59433Z" fill="white"/>
<path d="M46.0895 7.27278H43.6964V9.05824H45.8768V9.73484H43.6964V11.5203H46.0895V12.2157H43.005V6.57739H46.0895V7.27278Z" fill="white"/>
<path fill-rule="evenodd" clip-rule="evenodd" d="M42.9165 6.48389H46.1782V7.36722H43.7851V8.96474H45.9655V9.82928H43.7851V11.4268H46.1782V12.3101H42.9165V6.48389ZM43.0938 6.67183V12.1222H46.001V11.6147H43.6078V9.64134H45.7882V9.15268H43.6078V7.17928H46.001V6.67183H43.0938Z" fill="white"/>
<path d="M48.9966 12.2157H48.3141V7.27278H46.825V6.57739H50.5211V7.27278H48.9966V12.2157Z" fill="white"/>
<path fill-rule="evenodd" clip-rule="evenodd" d="M46.7365 6.48389H50.6098V7.36722H49.0853V12.3101H48.2256V7.36722H46.7365V6.48389ZM46.9138 6.67183V7.17928H48.4029V12.1222H48.9081V7.17928H50.4326V6.67183H46.9138Z" fill="white"/>
<path d="M53.1278 12.2157V6.57739H53.8103V12.2157H53.1278Z" fill="white"/>
<path fill-rule="evenodd" clip-rule="evenodd" d="M53.038 6.48389H53.8978V12.3101H53.038V6.48389ZM53.2153 6.67183V12.1222H53.7205V6.67183H53.2153Z" fill="white"/>
<path d="M56.8403 12.2157H56.1578V7.27278H54.6688V6.57739H58.3205V7.27278H56.8403V12.2157Z" fill="white"/>
<path fill-rule="evenodd" clip-rule="evenodd" d="M54.5803 6.48389H58.4093V7.36722H56.9291V12.3101H56.0693V7.36722H54.5803V6.48389ZM54.7575 6.67183V7.17928H56.2466V12.1222H56.7518V7.17928H58.232V6.67183H54.7575Z" fill="white"/>
<path d="M65.2438 11.4833C64.9878 11.7549 64.6838 11.9704 64.3492 12.1174C64.0147 12.2644 63.656 12.3401 63.2939 12.3401C62.9317 12.3401 62.573 12.2644 62.2385 12.1174C61.9039 11.9704 61.5999 11.7549 61.3439 11.4833C60.8428 10.9185 60.5638 10.1724 60.5638 9.39709C60.5638 8.62176 60.8428 7.87564 61.3439 7.31092C61.5944 7.03163 61.8974 6.81121 62.2333 6.6639C62.5692 6.5166 62.9305 6.44569 63.2939 6.45578C63.6567 6.44969 64.0169 6.52242 64.3523 6.66949C64.6876 6.81656 64.991 7.03485 65.2438 7.31092C65.4987 7.58578 65.699 7.91199 65.833 8.2703C65.9669 8.62861 66.0318 9.01175 66.0238 9.39709C66.0354 9.78291 65.9722 10.1672 65.838 10.526C65.7038 10.8849 65.5016 11.2107 65.2438 11.4833V11.4833ZM61.8491 11.0134C62.0379 11.2163 62.2629 11.3773 62.5109 11.4873C62.7589 11.5972 63.025 11.6538 63.2939 11.6538C63.5627 11.6538 63.8288 11.5972 64.0768 11.4873C64.3248 11.3773 64.5498 11.2163 64.7386 11.0134C65.121 10.5728 65.3333 9.99588 65.3333 9.39709C65.3333 8.7983 65.121 8.22139 64.7386 7.78078C64.5498 7.57791 64.3248 7.41683 64.0768 7.30689C63.8288 7.19695 63.5627 7.14034 63.2939 7.14034C63.025 7.14034 62.7589 7.19695 62.5109 7.30689C62.2629 7.41683 62.0379 7.57791 61.8491 7.78078C61.4667 8.22139 61.2544 8.7983 61.2544 9.39709C61.2544 9.99588 61.4667 10.5728 61.8491 11.0134V11.0134Z" fill="white"/>
<path fill-rule="evenodd" clip-rule="evenodd" d="M63.2916 6.55018C62.9407 6.54044 62.5917 6.60893 62.2672 6.7512C61.9429 6.89345 61.6503 7.10629 61.4084 7.37595C60.9229 7.92322 60.6526 8.64624 60.6526 9.39756C60.6526 10.1485 60.9226 10.8711 61.4076 11.4183C61.6552 11.6807 61.9491 11.8889 62.2725 12.0311C62.5963 12.1733 62.9434 12.2466 63.2939 12.2466C63.6445 12.2466 63.9916 12.1733 64.3154 12.0311C64.6392 11.8888 64.9334 11.6802 65.1812 11.4173L65.2439 11.4838L65.1813 11.4172C65.4305 11.1537 65.626 10.8387 65.7557 10.4918C65.8854 10.145 65.9465 9.77352 65.9353 9.40056L65.9352 9.39802L65.9353 9.39548C65.943 9.02269 65.8802 8.65203 65.7506 8.3054C65.621 7.95876 65.4272 7.64317 65.1807 7.37726L65.1803 7.37684C64.9359 7.10997 64.6426 6.89895 64.3185 6.75679C63.9943 6.61463 63.6461 6.54432 63.2953 6.5502L63.2935 6.55023L63.2916 6.55018ZM65.3065 11.5503C65.0423 11.8306 64.7286 12.053 64.3833 12.2047C64.0379 12.3564 63.6678 12.4345 63.2939 12.4345C62.9201 12.4345 62.55 12.3564 62.2046 12.2047C61.8593 12.0529 61.5455 11.8305 61.2813 11.5501L61.2804 11.5491L61.2794 11.5481C60.7629 10.966 60.4753 10.1968 60.4753 9.39756C60.4753 8.5983 60.7629 7.82915 61.2794 7.247L61.2798 7.24663L61.2798 7.24663C61.5388 6.95781 61.8521 6.72987 62.1995 6.57753C62.5463 6.42545 62.9193 6.35212 63.2944 6.36225C63.6687 6.35624 64.0403 6.4314 64.3862 6.58312C64.7327 6.73505 65.0461 6.96054 65.3073 7.24572C65.3074 7.24579 65.3074 7.24586 65.3075 7.24593L65.2439 7.31138L65.3071 7.24551C65.3072 7.24558 65.3072 7.24565 65.3073 7.24572C65.5704 7.52948 65.7771 7.86625 65.9154 8.23614C66.0535 8.60533 66.1205 9.00006 66.1125 9.39709C66.1125 9.39625 66.1125 9.3954 66.1125 9.39455L66.0239 9.39756L66.1125 9.39963C66.1125 9.39879 66.1125 9.39794 66.1125 9.39709C66.1242 9.79492 66.0588 10.1911 65.9205 10.5611C65.7819 10.9319 65.5729 11.2686 65.3065 11.5503ZM62.4768 7.22066C62.7356 7.10592 63.0134 7.04683 63.2939 7.04683C63.5745 7.04683 63.8523 7.10592 64.1111 7.22066C64.3699 7.3354 64.6047 7.50352 64.8018 7.71524L64.8029 7.7164L64.8039 7.71761C65.2014 8.17556 65.422 8.77519 65.422 9.39756C65.422 10.0199 65.2014 10.6195 64.8039 11.0775L64.8029 11.0787L64.8018 11.0799C64.6047 11.2916 64.3699 11.4597 64.1111 11.5745C63.8523 11.6892 63.5745 11.7483 63.2939 11.7483C63.0134 11.7483 62.7356 11.6892 62.4768 11.5745C62.2179 11.4597 61.9832 11.2916 61.7861 11.0799L61.8492 11.0139L61.784 11.0775C61.3865 10.6195 61.1659 10.0199 61.1659 9.39756C61.1659 8.77519 61.3865 8.17556 61.784 7.71761L61.785 7.7164L61.7861 7.71524C61.9832 7.50352 62.2179 7.3354 62.4768 7.22066ZM61.9134 10.949C62.0937 11.1425 62.3085 11.2961 62.5452 11.4011C62.7823 11.5062 63.0369 11.5603 63.2939 11.5603C63.551 11.5603 63.8055 11.5062 64.0427 11.4011C64.2794 11.2961 64.4942 11.1425 64.6745 10.949C65.0412 10.5259 65.2448 9.97222 65.2448 9.39756C65.2448 8.82289 65.0412 8.26919 64.6745 7.84608C64.4942 7.65263 64.2794 7.49899 64.0427 7.39406C63.8055 7.28892 63.551 7.23478 63.2939 7.23478C63.0369 7.23478 62.7823 7.28892 62.5452 7.39406C62.3085 7.49899 62.0937 7.65263 61.9134 7.84608C61.5467 8.26919 61.3431 8.82289 61.3431 9.39756C61.3431 9.97222 61.5467 10.5259 61.9134 10.949Z" fill="white"/>
<path d="M66.9892 12.2157V6.57739H67.8135L70.4016 10.9659V9.8758V6.57739H71.0841V12.2157H70.375L67.6716 7.62048V8.70115V12.2157H66.9892Z" fill="white"/>
<path fill-rule="evenodd" clip-rule="evenodd" d="M66.9002 6.48389H67.8623L70.3127 10.6388V6.48389H71.1724V12.3101H70.3255L67.76 7.94917V12.3101H66.9002V6.48389ZM67.0775 6.67183V12.1222H67.5827V7.29272L70.4239 12.1222H70.9951V6.67183H70.4899V11.2939L67.7641 6.67183H67.0775Z" fill="white"/>
<path d="M60.3952 20.4382C59.6484 20.4401 58.9189 20.6767 58.2989 21.1181C57.679 21.5595 57.1964 22.1859 56.9123 22.9181C56.6281 23.6503 56.5551 24.4554 56.7025 25.2316C56.8499 26.0078 57.2111 26.7202 57.7404 27.2787C58.2697 27.8373 58.9433 28.2168 59.6761 28.3695C60.4089 28.5221 61.1679 28.441 61.8572 28.1363C62.5464 27.8316 63.135 27.317 63.5484 26.6576C63.9619 25.9983 64.1816 25.2238 64.1799 24.432C64.1871 23.9038 64.094 23.3795 63.9061 22.8903C63.7183 22.401 63.4395 21.9568 63.0863 21.5842C62.7332 21.2116 62.313 20.9181 61.8506 20.7212C61.3883 20.5243 60.8933 20.4281 60.3952 20.4382V20.4382ZM60.3952 26.8565C59.9375 26.8904 59.4807 26.7776 59.0842 26.5326C58.6878 26.2877 58.37 25.922 58.1722 25.483C57.9745 25.0441 57.9058 24.5522 57.9752 24.0713C58.0446 23.5904 58.2488 23.1428 58.5613 22.7866C58.8738 22.4304 59.2802 22.1821 59.7276 22.074C60.1749 21.966 60.6426 22.0031 61.0698 22.1805C61.4971 22.358 61.8641 22.6676 62.1231 23.0691C62.3822 23.4707 62.5213 23.9455 62.5224 24.432C62.5367 24.7402 62.4926 25.0484 62.3927 25.3383C62.2929 25.6282 62.1393 25.8939 61.9411 26.1199C61.7428 26.3459 61.5039 26.5275 61.2384 26.654C60.9729 26.7805 60.6862 26.8493 60.3952 26.8565ZM52.1345 20.4382C51.3877 20.4401 50.6582 20.6767 50.0382 21.1181C49.4183 21.5595 48.9357 22.1859 48.6516 22.9181C48.3674 23.6503 48.2944 24.4554 48.4418 25.2316C48.5892 26.0078 48.9504 26.7202 49.4797 27.2787C50.009 27.8373 50.6826 28.2168 51.4154 28.3695C52.1482 28.5221 52.9072 28.441 53.5965 28.1363C54.2857 27.8316 54.8743 27.317 55.2877 26.6576C55.7012 25.9983 55.9209 25.2238 55.9191 24.432C55.9264 23.9038 55.8333 23.3795 55.6454 22.8903C55.4576 22.401 55.1788 21.9568 54.8256 21.5842C54.4725 21.2116 54.0523 20.9181 53.5899 20.7212C53.1276 20.5243 52.6326 20.4281 52.1345 20.4382V20.4382ZM52.1345 26.8565C51.6768 26.8904 51.22 26.7776 50.8235 26.5326C50.4271 26.2877 50.1093 25.922 49.9115 25.483C49.7138 25.0441 49.6451 24.5522 49.7145 24.0713C49.7839 23.5904 49.9881 23.1428 50.3006 22.7866C50.6131 22.4304 51.0195 22.1821 51.4669 22.074C51.9142 21.966 52.3819 22.0031 52.8091 22.1805C53.2364 22.358 53.6034 22.6676 53.8624 23.0691C54.1215 23.4707 54.2606 23.9455 54.2617 24.432C54.276 24.7402 54.2319 25.0484 54.132 25.3383C54.0322 25.6282 53.8786 25.8939 53.6804 26.1199C53.4821 26.3459 53.2432 26.5275 52.9777 26.654C52.7122 26.7805 52.4255 26.8493 52.1345 26.8565ZM42.3138 21.6692V23.3607H46.1428C46.0828 24.1574 45.7704 24.9092 45.2565 25.4939C44.8724 25.9088 44.4104 26.2336 43.9005 26.4472C43.3905 26.6609 42.8439 26.7587 42.2961 26.7343C41.1677 26.7343 40.0856 26.2591 39.2877 25.4132C38.4899 24.5673 38.0416 23.42 38.0416 22.2237C38.0416 21.0274 38.4899 19.8801 39.2877 19.0342C40.0856 18.1883 41.1677 17.713 42.2961 17.713C43.3778 17.696 44.4223 18.1315 45.2033 18.9253L46.3289 17.7318C45.8007 17.1779 45.1734 16.7413 44.484 16.4476C43.7945 16.1539 43.0567 16.0091 42.3138 16.0215C41.5259 15.989 40.7398 16.1255 40.0028 16.4228C39.2658 16.7201 38.5929 17.172 38.0246 17.7516C37.4563 18.3311 37.0041 19.0264 36.6953 19.7956C36.3865 20.5649 36.2273 21.3923 36.2273 22.2284C36.2273 23.0644 36.3865 23.8919 36.6953 24.6611C37.0041 25.4304 37.4563 26.1256 38.0246 26.7052C38.5929 27.2847 39.2658 27.7367 40.0028 28.034C40.7398 28.3312 41.5259 28.4677 42.3138 28.4352C43.072 28.4673 43.828 28.329 44.5322 28.0294C45.2365 27.7298 45.8729 27.2756 46.3998 26.6967C47.3306 25.6127 47.8266 24.1869 47.7825 22.7217C47.7857 22.3691 47.759 22.0168 47.7028 21.6692H42.3138ZM82.4739 22.9848C82.2428 22.2638 81.8105 21.6343 81.2344 21.1795C80.6583 20.7247 79.9654 20.4662 79.2477 20.4382C78.7628 20.4372 78.2829 20.5416 77.8377 20.7451C77.3924 20.9485 76.9913 21.2466 76.659 21.6209C76.3267 21.9952 76.0704 22.4378 75.9058 22.9213C75.7412 23.4048 75.672 23.919 75.7023 24.432C75.6947 25.2898 75.9491 26.1272 76.4274 26.8191C76.9058 27.511 77.5824 28.0203 78.3562 28.2709C79.1301 28.5215 79.9596 28.4999 80.7209 28.2094C81.4823 27.9189 82.1345 27.3751 82.5803 26.6591L81.2951 25.7194C81.1035 26.058 80.8318 26.3376 80.5068 26.5304C80.1819 26.7233 79.815 26.8227 79.4426 26.8189C79.0585 26.8357 78.6785 26.7289 78.3526 26.5126C78.0268 26.2962 77.7703 25.9804 77.6168 25.6067L82.6601 23.3983L82.4739 22.9848ZM77.3332 24.3192C77.3152 24.0273 77.3523 23.7346 77.4424 23.4581C77.5325 23.1816 77.6737 22.927 77.8578 22.7091C78.0418 22.4912 78.2651 22.3144 78.5144 22.1891C78.7637 22.0638 79.0341 21.9925 79.3097 21.9793C79.5953 21.9609 79.8797 22.0322 80.1272 22.1843C80.3747 22.3364 80.5744 22.5626 80.7013 22.8345L77.3332 24.3192ZM73.2383 28.1909H74.8957V16.4444H73.2383V28.1909ZM70.5261 21.3309H70.464C70.2164 21.032 69.9108 20.7932 69.5682 20.6311C69.2255 20.4689 68.8538 20.3871 68.4786 20.3912C67.51 20.441 66.5966 20.884 65.9277 21.6284C65.2588 22.3728 64.8857 23.3616 64.8857 24.3897C64.8857 25.4179 65.2588 26.4066 65.9277 27.151C66.5966 27.8954 67.51 28.3384 68.4786 28.3882C68.8544 28.3962 69.2272 28.3161 69.5704 28.1537C69.9136 27.9912 70.2187 27.7504 70.464 27.4485H70.5261V28.0217C70.5261 29.5535 69.7549 30.371 68.5141 30.371C68.0995 30.3614 67.6971 30.2213 67.3578 29.9687C67.0185 29.716 66.7577 29.3622 66.6084 28.952L65.1726 29.5817C65.438 30.2886 65.8996 30.8934 66.4962 31.3162C67.0929 31.7391 67.7965 31.96 68.5141 31.9497C70.4551 31.9497 72.0594 30.7375 72.0594 27.7868V20.6731H70.5261V21.3309ZM68.6204 26.8565C68.0397 26.8181 67.4946 26.5464 67.0962 26.0969C66.6978 25.6473 66.476 25.0536 66.476 24.4367C66.476 23.8198 66.6978 23.2261 67.0962 22.7765C67.4946 22.327 68.0397 22.0553 68.6204 22.0169C68.9043 22.0299 69.1827 22.1033 69.4393 22.2327C69.6958 22.3622 69.9252 22.545 70.1137 22.7703C70.3023 22.9956 70.4461 23.2588 70.5368 23.5443C70.6274 23.8298 70.6629 24.1317 70.6413 24.432C70.6655 24.7334 70.6317 25.0368 70.5422 25.3239C70.4526 25.6111 70.309 25.876 70.1201 26.1026C69.9312 26.3293 69.7009 26.5129 69.4431 26.6425C69.1854 26.7721 68.9055 26.8449 68.6204 26.8565V26.8565ZM90.2383 16.4444H86.2675V28.1909H87.9249V23.7366H90.2383C90.7107 23.7726 91.185 23.705 91.6316 23.5381C92.0783 23.3712 92.4877 23.1084 92.8344 22.7664C93.1811 22.4243 93.4575 22.0101 93.6466 21.5497C93.8356 21.0894 93.9332 20.5926 93.9332 20.0905C93.9332 19.5884 93.8356 19.0917 93.6466 18.6313C93.4575 18.1709 93.1811 17.7568 92.8344 17.4147C92.4877 17.0726 92.0783 16.8099 91.6316 16.643C91.185 16.476 90.7107 16.4084 90.2383 16.4444V16.4444ZM90.2383 22.0827H87.9249V18.0795H90.2737C90.5228 18.0795 90.7695 18.1315 90.9996 18.2326C91.2297 18.3337 91.4388 18.4818 91.615 18.6685C91.7911 18.8553 91.9308 19.077 92.0261 19.3209C92.1214 19.5649 92.1705 19.8264 92.1705 20.0905C92.1705 20.3546 92.1214 20.6161 92.0261 20.8601C91.9308 21.1041 91.7911 21.3258 91.615 21.5125C91.4388 21.6992 91.2297 21.8474 90.9996 21.9484C90.7695 22.0495 90.5228 22.1015 90.2737 22.1015L90.2383 22.0827ZM100.467 20.4006C99.8631 20.3612 99.2618 20.5101 98.7372 20.8292C98.2127 21.1482 97.7878 21.6232 97.5151 22.1955L98.9776 22.8439C99.1254 22.5614 99.3471 22.3303 99.6161 22.1786C99.8851 22.0268 100.19 21.9609 100.493 21.9887C100.704 21.9627 100.917 21.9813 101.12 22.0436C101.324 22.1058 101.514 22.2104 101.679 22.3512C101.844 22.492 101.981 22.6663 102.081 22.8638C102.182 23.0614 102.245 23.2782 102.266 23.5017V23.6145C101.733 23.3174 101.14 23.1626 100.538 23.1634C98.9599 23.1634 97.3467 24.1031 97.3467 25.8134C97.3623 26.1769 97.4467 26.5334 97.5948 26.8617C97.7429 27.19 97.9517 27.4834 98.2088 27.7244C98.4659 27.9655 98.7661 28.1493 99.0916 28.2649C99.417 28.3806 99.7611 28.4257 100.103 28.3976C100.519 28.422 100.934 28.3287 101.304 28.1272C101.675 27.9258 101.989 27.6234 102.213 27.2512H102.266V28.1909H103.861V23.6708C103.861 21.6129 102.39 20.4194 100.502 20.4194L100.467 20.4006ZM100.263 26.8377C99.7221 26.8377 98.9687 26.5464 98.9687 25.8416C98.9687 24.9019 99.9083 24.5824 100.741 24.5824C101.268 24.5686 101.788 24.7049 102.248 24.977C102.193 25.4874 101.964 25.959 101.606 26.3046C101.247 26.6502 100.783 26.8462 100.298 26.8565L100.263 26.8377ZM109.676 20.6731L107.779 25.7664H107.726L105.758 20.6731H103.985L106.937 27.7962L105.253 31.7524H106.981L111.519 20.6731H109.676ZM94.7852 28.1909H96.4338V16.4444H94.7852V28.1909Z" fill="white"/>
<path d="M9.25361 7.08556C8.96154 7.45169 8.81251 7.92234 8.83703 8.40116V29.1877C8.80687 29.6673 8.9566 30.1401 9.25361 30.5033L9.31566 30.5785L20.2974 18.9354V18.6535L9.31566 7.01978L9.25361 7.08556Z" fill="url(#paint0_linear_12922_64582)"/>
<path d="M23.9311 22.8172L20.2971 18.9361V18.6542L23.9311 14.7732L24.0109 14.8296L28.3628 17.442C29.6037 18.1844 29.6037 19.406 28.3628 20.1578L24.0286 22.7702L23.9311 22.8172Z" fill="url(#paint1_linear_12922_64582)"/>
<path d="M24.0371 22.7598L20.2968 18.7942L9.25296 30.5031C9.50342 30.7394 9.824 30.8754 10.1591 30.8874C10.4942 30.8994 10.8227 30.7867 11.0877 30.5688L24.0371 22.7598" fill="url(#paint2_linear_12922_64582)"/>
<path d="M24.0371 14.8287L11.0877 7.02908C10.8245 6.80817 10.4962 6.69272 10.1606 6.70303C9.82507 6.71334 9.50367 6.84876 9.25296 7.08546L20.2968 18.7943L24.0371 14.8287Z" fill="url(#paint3_linear_12922_64582)"/>
<path opacity="0.2" d="M23.9308 22.6748L11.0877 30.4275C10.8324 30.6318 10.5212 30.7423 10.2013 30.7423C9.88148 30.7423 9.57032 30.6318 9.315 30.4275V30.4275L9.25296 30.4932L9.315 30.5684C9.57032 30.7727 9.88148 30.8832 10.2013 30.8832C10.5212 30.8832 10.8324 30.7727 11.0877 30.5684L24.0371 22.7594L23.9308 22.6748Z" fill="#24272C"/>
<path opacity="0.12" d="M9.25283 30.3719C8.96813 29.9991 8.82861 29.5251 8.86284 29.0469V29.1878C8.83268 29.6674 8.9824 30.1403 9.27942 30.5034L9.34147 30.4377L9.25283 30.3719Z" fill="#24272C"/>
<path opacity="0.12" d="M28.3619 20.0158L23.9301 22.6752L24.0099 22.7598L28.3619 20.1474C28.6187 20.0322 28.8416 19.8457 29.0069 19.6076C29.1723 19.3695 29.274 19.0885 29.3014 18.7942C29.246 19.0616 29.1321 19.3115 28.9689 19.5237C28.8057 19.7359 28.5978 19.9044 28.3619 20.0158Z" fill="#24272C"/>
<path opacity="0.25" d="M11.0875 7.1606L28.3623 17.5727C28.5982 17.684 28.8061 17.8526 28.9693 18.0648C29.1325 18.277 29.2464 18.5269 29.3018 18.7943C29.2744 18.5 29.1727 18.219 29.0073 17.9809C28.842 17.7427 28.6191 17.5563 28.3623 17.4411L11.0875 7.02904C9.85544 6.27727 8.83615 6.89748 8.83615 8.40103V8.54199C8.86274 7.03844 9.85544 6.41823 11.0875 7.1606Z" fill="white"/>
<defs>
<linearGradient id="paint0_linear_12922_64582" x1="19.3225" y1="8.18502" x2="3.58093" y2="23.0324" gradientUnits="userSpaceOnUse">
<stop stop-color="#00A0FF"/>
<stop offset="0.01" stop-color="#00A1FF"/>
<stop offset="0.26" stop-color="#00BEFF"/>
<stop offset="0.51" stop-color="#00D2FF"/>
<stop offset="0.76" stop-color="#00DFFF"/>
<stop offset="1" stop-color="#00E3FF"/>
</linearGradient>
<linearGradient id="paint1_linear_12922_64582" x1="29.9848" y1="18.7952" x2="8.54425" y2="18.7952" gradientUnits="userSpaceOnUse">
<stop stop-color="#FFE000"/>
<stop offset="0.41" stop-color="#FFBD00"/>
<stop offset="0.78" stop-color="#FFA500"/>
<stop offset="1" stop-color="#FF9C00"/>
</linearGradient>
<linearGradient id="paint2_linear_12922_64582" x1="22.0074" y1="20.9555" x2="0.65651" y2="41.0849" gradientUnits="userSpaceOnUse">
<stop stop-color="#FF3A44"/>
<stop offset="1" stop-color="#C31162"/>
</linearGradient>
<linearGradient id="paint3_linear_12922_64582" x1="6.46985" y1="0.169149" x2="16.0011" y2="9.159" gradientUnits="userSpaceOnUse">
<stop stop-color="#32A071"/>
<stop offset="0.07" stop-color="#2DA771"/>
<stop offset="0.48" stop-color="#15CF74"/>
<stop offset="0.8" stop-color="#06E775"/>
<stop offset="1" stop-color="#00F076"/>
</linearGradient>
</defs>
</svg>
