<svg width="40" height="40" viewBox="0 0 40 40" fill="none" xmlns="http://www.w3.org/2000/svg">
    <path d="M20 38.0953C29.9938 38.0953 38.0953 29.9938 38.0953 20C38.0953 10.0063 29.9938 1.90479 20 1.90479C10.0063 1.90479 1.90479 10.0063 1.90479 20C1.90479 29.9938 10.0063 38.0953 20 38.0953Z" fill="#1E96C8"/>
    <path d="M28.1958 11.0289C28.2216 11.0117 28.7716 10.7624 29.2615 11.089C29.6397 11.3469 29.8201 11.8368 29.6912 12.3095C28.4966 17.9475 27.2933 23.5855 26.0987 29.2236C26.0901 29.2923 26.0213 29.8338 25.5315 30.126C25.2049 30.3237 24.7923 30.3495 24.4314 30.1948C24.3368 30.1518 24.2423 30.0916 24.1563 30.0315C21.3201 27.9 18.4839 25.7686 15.6477 23.6285L25.54 14.7331C25.5658 14.6902 25.6776 14.5526 25.6346 14.4667C25.6002 14.3979 25.4799 14.3722 25.3166 14.3979C25.1619 14.4151 25.0158 14.4753 24.8869 14.5612C20.8216 17.1224 16.765 19.6836 12.6998 22.2448L7.17346 20.5688C6.94141 20.397 6.61481 20.1219 6.6406 19.7953C6.66638 19.4945 6.98438 19.2883 7.1047 19.2109C8.10167 18.5921 24.2337 12.5157 28.1958 11.0289Z" fill="white"/>
    <path d="M15.6478 23.6371L15.2954 29.1032C15.4243 29.0946 15.6134 29.0774 15.8283 28.9829C16.0861 28.8712 16.258 28.7079 16.3525 28.6047C17.2034 27.7625 18.0543 26.9202 18.9051 26.0779L15.6478 23.6371Z" fill="#A9C9DD"/>
    <path d="M15.2867 29.1031C15.1406 29.1031 14.9687 29.0774 14.8312 28.9656C14.6679 28.8281 14.6163 28.6304 14.6077 28.5789C14.5132 28.1921 13.7568 25.6911 12.6997 22.2533L24.8868 14.5697C24.9384 14.5354 25.0071 14.4924 25.1017 14.458C25.2564 14.3978 25.5486 14.3291 25.6259 14.4408C25.6603 14.4838 25.6431 14.5525 25.6345 14.5783C25.6345 14.5783 25.6173 14.6643 25.54 14.7416C25.4369 14.8448 21.2943 18.5662 15.6476 23.637L15.2867 29.1031Z" fill="#C8DAEA"/>
</svg>
