<svg width="40" height="40" viewBox="0 0 40 40" fill="none" xmlns="http://www.w3.org/2000/svg">
    <rect x="1.90479" y="1.90479" width="36.1905" height="36.1905" rx="4" fill="white"/>
    <g clip-path="url(#clip0_6082:29862)">
        <path fill-rule="evenodd" clip-rule="evenodd" d="M11.4698 29.9734C6.32997 25.5123 9.65391 15.5808 17.5573 16.8303V17.7502C10.8828 17.4395 7.9447 25.4011 11.4698 29.9734ZM25.8857 12.744C26.6978 13.3929 27.8177 13.8713 29.3615 13.9641V14.8652C27.6534 14.5486 26.5704 13.6996 25.8857 12.744ZM23.7424 8C23.7424 8.33282 23.7844 8.69004 23.8389 9.01605H20.6894V24.7028C20.6894 25.4258 20.6152 26.0697 20.4667 26.6348C19.1831 29.4627 15.5513 29.0939 14.546 27.1526C16.0407 28.0889 18.4979 27.8398 19.5065 25.6187C19.6535 25.0552 19.7279 24.41 19.7279 23.6868V8H23.7424Z" fill="#00F7EF"/>
        <path fill-rule="evenodd" clip-rule="evenodd" d="M24.7022 9.01599V9.03614C24.7022 9.39931 24.8097 14.6512 30.3201 14.9789C30.3201 19.8648 30.3226 14.9789 30.3226 19.0363C29.9084 19.061 26.6948 18.8289 24.6948 17.0451L24.6885 24.9448C24.7382 28.5218 22.7469 32.0296 19.019 32.7367C17.9746 32.9353 17.0328 32.9568 15.4553 32.6118C6.36078 29.8914 9.3834 16.4024 18.5145 17.8461C18.5145 22.2008 18.5171 17.8461 18.5171 22.2008C14.7434 21.6458 13.4828 24.7828 14.4852 27.0311C15.3974 29.0768 19.1538 29.5205 20.4637 26.6338C20.612 26.0688 20.6863 25.4249 20.6865 24.7019V9.01599H24.7022Z" fill="black"/>
        <path fill-rule="evenodd" clip-rule="evenodd" d="M17.5566 17.7502C17.8778 17.764 18.198 17.7961 18.5156 17.8463C18.5156 22.2011 18.5182 17.8463 18.5182 22.2011C14.7445 21.6461 13.4839 24.7831 14.4863 27.0314C14.5048 27.0722 14.5246 27.1131 14.5453 27.1525C14.0968 26.8719 13.7359 26.4863 13.5259 26.0153C12.5249 23.7681 13.7855 20.63 17.5577 21.185C17.5577 17.1938 17.5566 20.5151 17.5566 17.7502ZM29.3599 14.864C29.6774 14.9215 29.9982 14.9594 30.3204 14.9775C30.3204 19.8634 30.3229 14.9775 30.3229 19.0349C29.9087 19.0596 26.6951 18.8275 24.6951 17.0437L24.6888 24.9434C24.7385 28.5204 22.7472 32.0282 19.0193 32.7352C17.9748 32.9339 17.0331 32.9554 15.4556 32.6104C13.6783 32.079 12.3657 31.135 11.4683 29.9717C12.2678 30.6665 13.2717 31.2289 14.4965 31.5961C16.0735 31.9397 17.0144 31.9172 18.0588 31.7195C21.7876 31.0138 23.7789 27.5049 23.7306 23.9299L23.7355 16.029C25.7355 17.8129 28.9491 18.0464 29.3645 18.0203C29.3645 14.252 29.3608 18.1962 29.3608 14.864H29.3599ZM24.7021 9.01599V9.03614C24.7021 9.2495 24.7405 11.146 25.885 12.744C24.5055 11.6402 24.0124 10.0457 23.8382 9.01599H24.7021Z" fill="#FF004F"/>
    </g>
    <defs>
        <clipPath id="clip0_6082:29862">
            <rect width="21.3177" height="24.88" fill="white" transform="translate(9.00586 8)"/>
        </clipPath>
    </defs>
</svg>
